<svg width="1280" height="720" xmlns="http://www.w3.org/2000/svg" xmlns:xlink="http://www.w3.org/1999/xlink" overflow="hidden"><defs><filter id="fx0" x="-10%" y="-10%" width="120%" height="120%" filterUnits="userSpaceOnUse" primitiveUnits="userSpaceOnUse"><feComponentTransfer color-interpolation-filters="sRGB"><feFuncR type="discrete" tableValues="1 1"/><feFuncG type="discrete" tableValues="1 1"/><feFuncB type="discrete" tableValues="1 1"/><feFuncA type="linear" slope="0.4" intercept="0"/></feComponentTransfer><feGaussianBlur stdDeviation="4.44444 4.44444"/></filter><filter id="fx1" x="-10%" y="-10%" width="120%" height="120%" filterUnits="userSpaceOnUse" primitiveUnits="userSpaceOnUse"><feComponentTransfer color-interpolation-filters="sRGB"><feFuncR type="discrete" tableValues="0.65098 0.65098"/><feFuncG type="discrete" tableValues="0.65098 0.65098"/><feFuncB type="discrete" tableValues="0.65098 0.65098"/><feFuncA type="linear" slope="0.4" intercept="0"/></feComponentTransfer><feGaussianBlur stdDeviation="6.66667 6.66667"/></filter><filter id="fx2" x="-10%" y="-10%" width="120%" height="120%" filterUnits="userSpaceOnUse" primitiveUnits="userSpaceOnUse"><feComponentTransfer color-interpolation-filters="sRGB"><feFuncR type="discrete" tableValues="1 1"/><feFuncG type="discrete" tableValues="1 1"/><feFuncB type="discrete" tableValues="1 1"/><feFuncA type="linear" slope="0.4" intercept="0"/></feComponentTransfer><feGaussianBlur stdDeviation="4.44444 4.44444"/></filter><filter id="fx3" x="-10%" y="-10%" width="120%" height="120%" filterUnits="userSpaceOnUse" primitiveUnits="userSpaceOnUse"><feComponentTransfer color-interpolation-filters="sRGB"><feFuncR type="discrete" tableValues="0.65098 0.65098"/><feFuncG type="discrete" tableValues="0.65098 0.65098"/><feFuncB type="discrete" tableValues="0.65098 0.65098"/><feFuncA type="linear" slope="0.4" intercept="0"/></feComponentTransfer><feGaussianBlur stdDeviation="6.66667 6.66667"/></filter><filter id="fx4" x="-10%" y="-10%" width="120%" height="120%" filterUnits="userSpaceOnUse" primitiveUnits="userSpaceOnUse"><feComponentTransfer color-interpolation-filters="sRGB"><feFuncR type="discrete" tableValues="1 1"/><feFuncG type="discrete" tableValues="1 1"/><feFuncB type="discrete" tableValues="1 1"/><feFuncA type="linear" slope="0.4" intercept="0"/></feComponentTransfer><feGaussianBlur stdDeviation="4.44444 4.44444"/></filter><filter id="fx5" x="-10%" y="-10%" width="120%" height="120%" filterUnits="userSpaceOnUse" primitiveUnits="userSpaceOnUse"><feComponentTransfer color-interpolation-filters="sRGB"><feFuncR type="discrete" tableValues="0.65098 0.65098"/><feFuncG type="discrete" tableValues="0.65098 0.65098"/><feFuncB type="discrete" tableValues="0.65098 0.65098"/><feFuncA type="linear" slope="0.4" intercept="0"/></feComponentTransfer><feGaussianBlur stdDeviation="6.66667 6.66667"/></filter><filter id="fx6" x="-10%" y="-10%" width="120%" height="120%" filterUnits="userSpaceOnUse" primitiveUnits="userSpaceOnUse"><feComponentTransfer color-interpolation-filters="sRGB"><feFuncR type="discrete" tableValues="1 1"/><feFuncG type="discrete" tableValues="1 1"/><feFuncB type="discrete" tableValues="1 1"/><feFuncA type="linear" slope="0.4" intercept="0"/></feComponentTransfer><feGaussianBlur stdDeviation="4.44444 4.44444"/></filter><filter id="fx7" x="-10%" y="-10%" width="120%" height="120%" filterUnits="userSpaceOnUse" primitiveUnits="userSpaceOnUse"><feComponentTransfer color-interpolation-filters="sRGB"><feFuncR type="discrete" tableValues="0.65098 0.65098"/><feFuncG type="discrete" tableValues="0.65098 0.65098"/><feFuncB type="discrete" tableValues="0.65098 0.65098"/><feFuncA type="linear" slope="0.4" intercept="0"/></feComponentTransfer><feGaussianBlur stdDeviation="6.66667 6.66667"/></filter><filter id="fx8" x="-10%" y="-10%" width="120%" height="120%" filterUnits="userSpaceOnUse" primitiveUnits="userSpaceOnUse"><feComponentTransfer color-interpolation-filters="sRGB"><feFuncR type="discrete" tableValues="1 1"/><feFuncG type="discrete" tableValues="1 1"/><feFuncB type="discrete" tableValues="1 1"/><feFuncA type="linear" slope="0.4" intercept="0"/></feComponentTransfer><feGaussianBlur stdDeviation="4.44444 4.44444"/></filter><filter id="fx9" x="-10%" y="-10%" width="120%" height="120%" filterUnits="userSpaceOnUse" primitiveUnits="userSpaceOnUse"><feComponentTransfer color-interpolation-filters="sRGB"><feFuncR type="discrete" tableValues="0.65098 0.65098"/><feFuncG type="discrete" tableValues="0.65098 0.65098"/><feFuncB type="discrete" tableValues="0.65098 0.65098"/><feFuncA type="linear" slope="0.4" intercept="0"/></feComponentTransfer><feGaussianBlur stdDeviation="6.66667 6.66667"/></filter><filter id="fx10" x="-10%" y="-10%" width="120%" height="120%" filterUnits="userSpaceOnUse" primitiveUnits="userSpaceOnUse"><feComponentTransfer color-interpolation-filters="sRGB"><feFuncR type="discrete" tableValues="1 1"/><feFuncG type="discrete" tableValues="1 1"/><feFuncB type="discrete" tableValues="1 1"/><feFuncA type="linear" slope="0.4" intercept="0"/></feComponentTransfer><feGaussianBlur stdDeviation="4.44444 4.44444"/></filter><filter id="fx11" x="-10%" y="-10%" width="120%" height="120%" filterUnits="userSpaceOnUse" primitiveUnits="userSpaceOnUse"><feComponentTransfer color-interpolation-filters="sRGB"><feFuncR type="discrete" tableValues="0.65098 0.65098"/><feFuncG type="discrete" tableValues="0.65098 0.65098"/><feFuncB type="discrete" tableValues="0.65098 0.65098"/><feFuncA type="linear" slope="0.4" intercept="0"/></feComponentTransfer><feGaussianBlur stdDeviation="6.66667 6.66667"/></filter><filter id="fx12" x="-10%" y="-10%" width="120%" height="120%" filterUnits="userSpaceOnUse" primitiveUnits="userSpaceOnUse"><feComponentTransfer color-interpolation-filters="sRGB"><feFuncR type="discrete" tableValues="1 1"/><feFuncG type="discrete" tableValues="1 1"/><feFuncB type="discrete" tableValues="1 1"/><feFuncA type="linear" slope="0.4" intercept="0"/></feComponentTransfer><feGaussianBlur stdDeviation="4.44444 4.44444"/></filter><filter id="fx13" x="-10%" y="-10%" width="120%" height="120%" filterUnits="userSpaceOnUse" primitiveUnits="userSpaceOnUse"><feComponentTransfer color-interpolation-filters="sRGB"><feFuncR type="discrete" tableValues="0.65098 0.65098"/><feFuncG type="discrete" tableValues="0.65098 0.65098"/><feFuncB type="discrete" tableValues="0.65098 0.65098"/><feFuncA type="linear" slope="0.4" intercept="0"/></feComponentTransfer><feGaussianBlur stdDeviation="6.66667 6.66667"/></filter><filter id="fx14" x="-10%" y="-10%" width="120%" height="120%" filterUnits="userSpaceOnUse" primitiveUnits="userSpaceOnUse"><feComponentTransfer color-interpolation-filters="sRGB"><feFuncR type="discrete" tableValues="0.65098 0.65098"/><feFuncG type="discrete" tableValues="0.65098 0.65098"/><feFuncB type="discrete" tableValues="0.65098 0.65098"/><feFuncA type="linear" slope="0.4" intercept="0"/></feComponentTransfer><feGaussianBlur stdDeviation="6.66667 6.66667"/></filter><filter id="fx15" x="-10%" y="-10%" width="120%" height="120%" filterUnits="userSpaceOnUse" primitiveUnits="userSpaceOnUse"><feComponentTransfer color-interpolation-filters="sRGB"><feFuncR type="discrete" tableValues="1 1"/><feFuncG type="discrete" tableValues="1 1"/><feFuncB type="discrete" tableValues="1 1"/><feFuncA type="linear" slope="0.4" intercept="0"/></feComponentTransfer><feGaussianBlur stdDeviation="4.44444 4.44444"/></filter><filter id="fx16" x="-10%" y="-10%" width="120%" height="120%" filterUnits="userSpaceOnUse" primitiveUnits="userSpaceOnUse"><feComponentTransfer color-interpolation-filters="sRGB"><feFuncR type="discrete" tableValues="0.65098 0.65098"/><feFuncG type="discrete" tableValues="0.65098 0.65098"/><feFuncB type="discrete" tableValues="0.65098 0.65098"/><feFuncA type="linear" slope="0.4" intercept="0"/></feComponentTransfer><feGaussianBlur stdDeviation="6.66667 6.66667"/></filter><filter id="fx17" x="-10%" y="-10%" width="120%" height="120%" filterUnits="userSpaceOnUse" primitiveUnits="userSpaceOnUse"><feComponentTransfer color-interpolation-filters="sRGB"><feFuncR type="discrete" tableValues="1 1"/><feFuncG type="discrete" tableValues="1 1"/><feFuncB type="discrete" tableValues="1 1"/><feFuncA type="linear" slope="0.4" intercept="0"/></feComponentTransfer><feGaussianBlur stdDeviation="4.44444 4.44444"/></filter><filter id="fx18" x="-10%" y="-10%" width="120%" height="120%" filterUnits="userSpaceOnUse" primitiveUnits="userSpaceOnUse"><feComponentTransfer color-interpolation-filters="sRGB"><feFuncR type="discrete" tableValues="0.65098 0.65098"/><feFuncG type="discrete" tableValues="0.65098 0.65098"/><feFuncB type="discrete" tableValues="0.65098 0.65098"/><feFuncA type="linear" slope="0.4" intercept="0"/></feComponentTransfer><feGaussianBlur stdDeviation="6.66667 6.66667"/></filter><clipPath id="clip19"><rect x="0" y="0" width="1280" height="720"/></clipPath><linearGradient x1="30" y1="254" x2="287" y2="511" gradientUnits="userSpaceOnUse" spreadMethod="reflect" id="fill20"><stop offset="0" stop-color="#EDEEF3"/><stop offset="0.0588235" stop-color="#EEEFF4"/><stop offset="0.117647" stop-color="#F0F1F5"/><stop offset="0.176471" stop-color="#F2F3F6"/><stop offset="0.235294" stop-color="#F4F4F7"/><stop offset="0.294118" stop-color="#F5F6F8"/><stop offset="0.352941" stop-color="#F7F7F9"/><stop offset="0.411765" stop-color="#F8F8FA"/><stop offset="0.470588" stop-color="#F9F9FB"/><stop offset="0.529412" stop-color="#FAFAFC"/><stop offset="0.588235" stop-color="#FBFBFC"/><stop offset="0.647059" stop-color="#FCFCFD"/><stop offset="0.705882" stop-color="#FDFDFD"/><stop offset="0.764706" stop-color="#FDFDFE"/><stop offset="0.823529" stop-color="#FEFEFE"/><stop offset="0.882353" stop-color="#FEFEFE"/><stop offset="0.941176" stop-color="#FEFEFE"/><stop offset="1" stop-color="#FFFFFF"/></linearGradient><linearGradient x1="345" y1="253" x2="602" y2="510" gradientUnits="userSpaceOnUse" spreadMethod="reflect" id="fill21"><stop offset="0" stop-color="#EDEEF3"/><stop offset="0.0588235" stop-color="#EEEFF4"/><stop offset="0.117647" stop-color="#F0F1F5"/><stop offset="0.176471" stop-color="#F2F3F6"/><stop offset="0.235294" stop-color="#F4F4F7"/><stop offset="0.294118" stop-color="#F5F6F8"/><stop offset="0.352941" stop-color="#F7F7F9"/><stop offset="0.411765" stop-color="#F8F8FA"/><stop offset="0.470588" stop-color="#F9F9FB"/><stop offset="0.529412" stop-color="#FAFAFC"/><stop offset="0.588235" stop-color="#FBFBFC"/><stop offset="0.647059" stop-color="#FCFCFD"/><stop offset="0.705882" stop-color="#FDFDFD"/><stop offset="0.764706" stop-color="#FDFDFE"/><stop offset="0.823529" stop-color="#FEFEFE"/><stop offset="0.882353" stop-color="#FEFEFE"/><stop offset="0.941176" stop-color="#FEFEFE"/><stop offset="1" stop-color="#FFFFFF"/></linearGradient><linearGradient x1="687" y1="230" x2="1207" y2="750" gradientUnits="userSpaceOnUse" spreadMethod="reflect" id="fill22"><stop offset="0" stop-color="#EDEEF3"/><stop offset="0.0588235" stop-color="#EEEFF4"/><stop offset="0.117647" stop-color="#F0F1F5"/><stop offset="0.176471" stop-color="#F2F3F6"/><stop offset="0.235294" stop-color="#F4F4F7"/><stop offset="0.294118" stop-color="#F5F6F8"/><stop offset="0.352941" stop-color="#F7F7F9"/><stop offset="0.411765" stop-color="#F8F8FA"/><stop offset="0.470588" stop-color="#F9F9FB"/><stop offset="0.529412" stop-color="#FAFAFC"/><stop offset="0.588235" stop-color="#FBFBFC"/><stop offset="0.647059" stop-color="#FCFCFD"/><stop offset="0.705882" stop-color="#FDFDFD"/><stop offset="0.764706" stop-color="#FDFDFE"/><stop offset="0.823529" stop-color="#FEFEFE"/><stop offset="0.882353" stop-color="#FEFEFE"/><stop offset="0.941176" stop-color="#FEFEFE"/><stop offset="1" stop-color="#FFFFFF"/></linearGradient><linearGradient x1="49.5" y1="67.5" x2="267.5" y2="285.5" gradientUnits="userSpaceOnUse" spreadMethod="reflect" id="fill23"><stop offset="0" stop-color="#EDEEF3"/><stop offset="0.0588235" stop-color="#EEEFF4"/><stop offset="0.117647" stop-color="#F0F1F5"/><stop offset="0.176471" stop-color="#F2F3F6"/><stop offset="0.235294" stop-color="#F4F4F7"/><stop offset="0.294118" stop-color="#F5F6F8"/><stop offset="0.352941" stop-color="#F7F7F9"/><stop offset="0.411765" stop-color="#F8F8FA"/><stop offset="0.470588" stop-color="#F9F9FB"/><stop offset="0.529412" stop-color="#FAFAFC"/><stop offset="0.588235" stop-color="#FBFBFC"/><stop offset="0.647059" stop-color="#FCFCFD"/><stop offset="0.705882" stop-color="#FDFDFD"/><stop offset="0.764706" stop-color="#FDFDFE"/><stop offset="0.823529" stop-color="#FEFEFE"/><stop offset="0.882353" stop-color="#FEFEFE"/><stop offset="0.941176" stop-color="#FEFEFE"/><stop offset="1" stop-color="#FFFFFF"/></linearGradient><linearGradient x1="364.5" y1="67.5" x2="582.5" y2="285.5" gradientUnits="userSpaceOnUse" spreadMethod="reflect" id="fill24"><stop offset="0" stop-color="#EDEEF3"/><stop offset="0.0588235" stop-color="#EEEFF4"/><stop offset="0.117647" stop-color="#F0F1F5"/><stop offset="0.176471" stop-color="#F2F3F6"/><stop offset="0.235294" stop-color="#F4F4F7"/><stop offset="0.294118" stop-color="#F5F6F8"/><stop offset="0.352941" stop-color="#F7F7F9"/><stop offset="0.411765" stop-color="#F8F8FA"/><stop offset="0.470588" stop-color="#F9F9FB"/><stop offset="0.529412" stop-color="#FAFAFC"/><stop offset="0.588235" stop-color="#FBFBFC"/><stop offset="0.647059" stop-color="#FCFCFD"/><stop offset="0.705882" stop-color="#FDFDFD"/><stop offset="0.764706" stop-color="#FDFDFE"/><stop offset="0.823529" stop-color="#FEFEFE"/><stop offset="0.882353" stop-color="#FEFEFE"/><stop offset="0.941176" stop-color="#FEFEFE"/><stop offset="1" stop-color="#FFFFFF"/></linearGradient><linearGradient x1="677.5" y1="67.5" x2="895.5" y2="285.5" gradientUnits="userSpaceOnUse" spreadMethod="reflect" id="fill25"><stop offset="0" stop-color="#EDEEF3"/><stop offset="0.0588235" stop-color="#EEEFF4"/><stop offset="0.117647" stop-color="#F0F1F5"/><stop offset="0.176471" stop-color="#F2F3F6"/><stop offset="0.235294" stop-color="#F4F4F7"/><stop offset="0.294118" stop-color="#F5F6F8"/><stop offset="0.352941" stop-color="#F7F7F9"/><stop offset="0.411765" stop-color="#F8F8FA"/><stop offset="0.470588" stop-color="#F9F9FB"/><stop offset="0.529412" stop-color="#FAFAFC"/><stop offset="0.588235" stop-color="#FBFBFC"/><stop offset="0.647059" stop-color="#FCFCFD"/><stop offset="0.705882" stop-color="#FDFDFD"/><stop offset="0.764706" stop-color="#FDFDFE"/><stop offset="0.823529" stop-color="#FEFEFE"/><stop offset="0.882353" stop-color="#FEFEFE"/><stop offset="0.941176" stop-color="#FEFEFE"/><stop offset="1" stop-color="#FFFFFF"/></linearGradient><linearGradient x1="992.5" y1="66.5" x2="1210.5" y2="284.5" gradientUnits="userSpaceOnUse" spreadMethod="reflect" id="fill26"><stop offset="0" stop-color="#EDEEF3"/><stop offset="0.0588235" stop-color="#EEEFF4"/><stop offset="0.117647" stop-color="#F0F1F5"/><stop offset="0.176471" stop-color="#F2F3F6"/><stop offset="0.235294" stop-color="#F4F4F7"/><stop offset="0.294118" stop-color="#F5F6F8"/><stop offset="0.352941" stop-color="#F7F7F9"/><stop offset="0.411765" stop-color="#F8F8FA"/><stop offset="0.470588" stop-color="#F9F9FB"/><stop offset="0.529412" stop-color="#FAFAFC"/><stop offset="0.588235" stop-color="#FBFBFC"/><stop offset="0.647059" stop-color="#FCFCFD"/><stop offset="0.705882" stop-color="#FDFDFD"/><stop offset="0.764706" stop-color="#FDFDFE"/><stop offset="0.823529" stop-color="#FEFEFE"/><stop offset="0.882353" stop-color="#FEFEFE"/><stop offset="0.941176" stop-color="#FEFEFE"/><stop offset="1" stop-color="#FFFFFF"/></linearGradient><linearGradient x1="309.75" y1="-287.75" x2="976.25" y2="378.75" gradientUnits="userSpaceOnUse" spreadMethod="reflect" id="fill27"><stop offset="0" stop-color="#EDEEF3"/><stop offset="0.0588235" stop-color="#EEEFF4"/><stop offset="0.117647" stop-color="#F0F1F5"/><stop offset="0.176471" stop-color="#F2F3F6"/><stop offset="0.235294" stop-color="#F4F4F7"/><stop offset="0.294118" stop-color="#F5F6F8"/><stop offset="0.352941" stop-color="#F7F7F9"/><stop offset="0.411765" stop-color="#F8F8FA"/><stop offset="0.470588" stop-color="#F9F9FB"/><stop offset="0.529412" stop-color="#FAFAFC"/><stop offset="0.588235" stop-color="#FBFBFC"/><stop offset="0.647059" stop-color="#FCFCFD"/><stop offset="0.705882" stop-color="#FDFDFD"/><stop offset="0.764706" stop-color="#FDFDFE"/><stop offset="0.823529" stop-color="#FEFEFE"/><stop offset="0.882353" stop-color="#FEFEFE"/><stop offset="0.941176" stop-color="#FEFEFE"/><stop offset="1" stop-color="#FFFFFF"/></linearGradient><linearGradient x1="34.5" y1="483.5" x2="282.5" y2="731.5" gradientUnits="userSpaceOnUse" spreadMethod="reflect" id="fill28"><stop offset="0" stop-color="#EDEEF3"/><stop offset="0.0588235" stop-color="#EEEFF4"/><stop offset="0.117647" stop-color="#F0F1F5"/><stop offset="0.176471" stop-color="#F2F3F6"/><stop offset="0.235294" stop-color="#F4F4F7"/><stop offset="0.294118" stop-color="#F5F6F8"/><stop offset="0.352941" stop-color="#F7F7F9"/><stop offset="0.411765" stop-color="#F8F8FA"/><stop offset="0.470588" stop-color="#F9F9FB"/><stop offset="0.529412" stop-color="#FAFAFC"/><stop offset="0.588235" stop-color="#FBFBFC"/><stop offset="0.647059" stop-color="#FCFCFD"/><stop offset="0.705882" stop-color="#FDFDFD"/><stop offset="0.764706" stop-color="#FDFDFE"/><stop offset="0.823529" stop-color="#FEFEFE"/><stop offset="0.882353" stop-color="#FEFEFE"/><stop offset="0.941176" stop-color="#FEFEFE"/><stop offset="1" stop-color="#FFFFFF"/></linearGradient><linearGradient x1="349.75" y1="483.25" x2="597.25" y2="730.75" gradientUnits="userSpaceOnUse" spreadMethod="reflect" id="fill29"><stop offset="0" stop-color="#EDEEF3"/><stop offset="0.0588235" stop-color="#EEEFF4"/><stop offset="0.117647" stop-color="#F0F1F5"/><stop offset="0.176471" stop-color="#F2F3F6"/><stop offset="0.235294" stop-color="#F4F4F7"/><stop offset="0.294118" stop-color="#F5F6F8"/><stop offset="0.352941" stop-color="#F7F7F9"/><stop offset="0.411765" stop-color="#F8F8FA"/><stop offset="0.470588" stop-color="#F9F9FB"/><stop offset="0.529412" stop-color="#FAFAFC"/><stop offset="0.588235" stop-color="#FBFBFC"/><stop offset="0.647059" stop-color="#FCFCFD"/><stop offset="0.705882" stop-color="#FDFDFD"/><stop offset="0.764706" stop-color="#FDFDFE"/><stop offset="0.823529" stop-color="#FEFEFE"/><stop offset="0.882353" stop-color="#FEFEFE"/><stop offset="0.941176" stop-color="#FEFEFE"/><stop offset="1" stop-color="#FFFFFF"/></linearGradient></defs><g clip-path="url(#clip19)"><rect x="0" y="0" width="1280" height="720" fill="#FFFFFF"/><g filter="url(#fx0)" transform="translate(-9 245)"><g><path d="M14.5719 52.4061C14.5719 31.5108 31.5108 14.5719 52.4061 14.5719L263.738 14.5719C284.633 14.5719 301.572 31.5108 301.572 52.4061L301.572 203.738C301.572 224.633 284.633 241.572 263.738 241.572L52.4061 241.572C31.5108 241.572 14.5719 224.633 14.5719 203.738Z" fill="#BFBFBF" fill-rule="evenodd"/></g></g><path d="M15 306.834C15 285.939 31.9389 269 52.8342 269L264.166 269C285.061 269 302 285.939 302 306.834L302 458.166C302 479.061 285.061 496 264.166 496L52.8342 496C31.9389 496 15 479.061 15 458.166Z" fill="#BFBFBF" fill-rule="evenodd"/><g filter="url(#fx1)" transform="translate(8 262)"><g><path d="M21.1421 58.9763C21.1421 38.0811 38.0811 21.1422 58.9763 21.1422L270.308 21.1422C291.203 21.1422 308.142 38.0811 308.142 58.9763L308.142 210.308C308.142 231.203 291.203 248.142 270.308 248.142L58.9763 248.142C38.0811 248.142 21.1421 231.203 21.1421 210.308Z" fill="#FF0000" fill-rule="evenodd"/></g></g><path d="M15 306.834C15 285.939 31.9389 269 52.8342 269L264.166 269C285.061 269 302 285.939 302 306.834L302 458.166C302 479.061 285.061 496 264.166 496L52.8342 496C31.9389 496 15 479.061 15 458.166Z" fill="url(#fill20)" fill-rule="evenodd"/><g filter="url(#fx2)" transform="translate(306 244)"><g><path d="M14.5719 52.4061C14.5719 31.5108 31.5108 14.5719 52.4061 14.5719L263.738 14.5719C284.633 14.5719 301.572 31.5108 301.572 52.4061L301.572 203.738C301.572 224.633 284.633 241.572 263.738 241.572L52.4061 241.572C31.5108 241.572 14.5719 224.633 14.5719 203.738Z" fill="#BFBFBF" fill-rule="evenodd"/></g></g><path d="M330 305.834C330 284.939 346.939 268 367.834 268L579.166 268C600.061 268 617 284.939 617 305.834L617 457.166C617 478.061 600.061 495 579.166 495L367.834 495C346.939 495 330 478.061 330 457.166Z" fill="#BFBFBF" fill-rule="evenodd"/><g filter="url(#fx3)" transform="translate(323 261)"><g><path d="M21.1422 58.9763C21.1422 38.0811 38.0811 21.1422 58.9763 21.1422L270.308 21.1422C291.203 21.1422 308.142 38.0811 308.142 58.9763L308.142 210.308C308.142 231.203 291.203 248.142 270.308 248.142L58.9763 248.142C38.0811 248.142 21.1422 231.203 21.1422 210.308Z" fill="#FF0000" fill-rule="evenodd"/></g></g><path d="M330 305.834C330 284.939 346.939 268 367.834 268L579.166 268C600.061 268 617 284.939 617 305.834L617 457.166C617 478.061 600.061 495 579.166 495L367.834 495C346.939 495 330 478.061 330 457.166Z" fill="url(#fill21)" fill-rule="evenodd"/><g filter="url(#fx4)" transform="translate(625 244)"><g><path d="M14.5719 88.5733C14.5719 47.7035 47.7034 14.5719 88.5733 14.5719L536.57 14.5719C577.44 14.5719 610.572 47.7035 610.572 88.5733L610.572 384.57C610.572 425.44 577.44 458.572 536.57 458.572L88.5733 458.572C47.7034 458.572 14.5719 425.44 14.5719 384.57Z" fill="#BFBFBF" fill-rule="evenodd"/></g></g><path d="M649 342.001C649 301.132 682.132 268 723.001 268L1171 268C1211.87 268 1245 301.132 1245 342.001L1245 637.999C1245 678.868 1211.87 712 1171 712L723.001 712C682.132 712 649 678.868 649 637.999Z" fill="#BFBFBF" fill-rule="evenodd"/><g filter="url(#fx5)" transform="translate(642 261)"><g><path d="M21.1422 95.1436C21.1422 54.2737 54.2737 21.1422 95.1435 21.1422L543.141 21.1422C584.011 21.1422 617.142 54.2737 617.142 95.1436L617.142 391.141C617.142 432.011 584.011 465.142 543.141 465.142L95.1435 465.142C54.2737 465.142 21.1422 432.011 21.1422 391.141Z" fill="#FF0000" fill-rule="evenodd"/></g></g><path d="M649 342.001C649 301.132 682.132 268 723.001 268L1171 268C1211.87 268 1245 301.132 1245 342.001L1245 637.999C1245 678.868 1211.87 712 1171 712L723.001 712C682.132 712 649 678.868 649 637.999Z" fill="url(#fill22)" fill-rule="evenodd"/><g filter="url(#fx6)" transform="translate(-9 78)"><g><path d="M14.5719 39.4057C14.5719 25.6904 25.6904 14.5719 39.4057 14.5719L276.738 14.5719C290.453 14.5719 301.572 25.6904 301.572 39.4057L301.572 138.738C301.572 152.453 290.453 163.572 276.738 163.572L39.4057 163.572C25.6904 163.572 14.5719 152.453 14.5719 138.738Z" fill="#BFBFBF" fill-rule="evenodd"/></g></g><path d="M15 126.834C15 113.118 26.1185 102 39.8338 102L277.166 102C290.882 102 302 113.118 302 126.834L302 226.166C302 239.882 290.882 251 277.166 251L39.8338 251C26.1185 251 15 239.882 15 226.166Z" fill="#BFBFBF" fill-rule="evenodd"/><g filter="url(#fx7)" transform="translate(8 95)"><g><path d="M21.1421 45.9759C21.1421 32.2606 32.2606 21.1421 45.9759 21.1421L283.308 21.1421C297.024 21.1421 308.142 32.2606 308.142 45.9759L308.142 145.308C308.142 159.024 297.024 170.142 283.308 170.142L45.9759 170.142C32.2606 170.142 21.1421 159.024 21.1421 145.308Z" fill="#FF0000" fill-rule="evenodd"/></g></g><path d="M15 126.834C15 113.118 26.1185 102 39.8338 102L277.166 102C290.882 102 302 113.118 302 126.834L302 226.166C302 239.882 290.882 251 277.166 251L39.8338 251C26.1185 251 15 239.882 15 226.166Z" fill="url(#fill23)" fill-rule="evenodd"/><g filter="url(#fx8)" transform="translate(306 78)"><g><path d="M14.5719 39.4057C14.5719 25.6904 25.6904 14.5719 39.4057 14.5719L276.738 14.5719C290.453 14.5719 301.572 25.6904 301.572 39.4057L301.572 138.738C301.572 152.453 290.453 163.572 276.738 163.572L39.4057 163.572C25.6904 163.572 14.5719 152.453 14.5719 138.738Z" fill="#BFBFBF" fill-rule="evenodd"/></g></g><path d="M330 126.834C330 113.118 341.118 102 354.834 102L592.166 102C605.882 102 617 113.118 617 126.834L617 226.166C617 239.882 605.882 251 592.166 251L354.834 251C341.118 251 330 239.882 330 226.166Z" fill="#BFBFBF" fill-rule="evenodd"/><g filter="url(#fx9)" transform="translate(323 95)"><g><path d="M21.1422 45.9759C21.1422 32.2606 32.2606 21.1421 45.9759 21.1421L283.308 21.1421C297.024 21.1421 308.142 32.2606 308.142 45.9759L308.142 145.308C308.142 159.024 297.024 170.142 283.308 170.142L45.9759 170.142C32.2606 170.142 21.1422 159.024 21.1422 145.308Z" fill="#FF0000" fill-rule="evenodd"/></g></g><path d="M330 126.834C330 113.118 341.118 102 354.834 102L592.166 102C605.882 102 617 113.118 617 126.834L617 226.166C617 239.882 605.882 251 592.166 251L354.834 251C341.118 251 330 239.882 330 226.166Z" fill="url(#fill24)" fill-rule="evenodd"/><g filter="url(#fx10)" transform="translate(619 78)"><g><path d="M14.5719 39.4057C14.5719 25.6904 25.6904 14.5719 39.4057 14.5719L276.738 14.5719C290.453 14.5719 301.572 25.6904 301.572 39.4057L301.572 138.738C301.572 152.453 290.453 163.572 276.738 163.572L39.4057 163.572C25.6904 163.572 14.5719 152.453 14.5719 138.738Z" fill="#BFBFBF" fill-rule="evenodd"/></g></g><path d="M643 126.834C643 113.118 654.118 102 667.834 102L905.166 102C918.882 102 930 113.118 930 126.834L930 226.166C930 239.882 918.882 251 905.166 251L667.834 251C654.118 251 643 239.882 643 226.166Z" fill="#BFBFBF" fill-rule="evenodd"/><g filter="url(#fx11)" transform="translate(636 95)"><g><path d="M21.1422 45.9759C21.1422 32.2606 32.2606 21.1421 45.9759 21.1421L283.308 21.1421C297.024 21.1421 308.142 32.2606 308.142 45.9759L308.142 145.308C308.142 159.024 297.024 170.142 283.308 170.142L45.9759 170.142C32.2606 170.142 21.1422 159.024 21.1422 145.308Z" fill="#FF0000" fill-rule="evenodd"/></g></g><path d="M643 126.834C643 113.118 654.118 102 667.834 102L905.166 102C918.882 102 930 113.118 930 126.834L930 226.166C930 239.882 918.882 251 905.166 251L667.834 251C654.118 251 643 239.882 643 226.166Z" fill="url(#fill25)" fill-rule="evenodd"/><g filter="url(#fx12)" transform="translate(934 77)"><g><path d="M14.5719 39.4057C14.5719 25.6904 25.6904 14.5719 39.4057 14.5719L276.738 14.5719C290.453 14.5719 301.572 25.6904 301.572 39.4057L301.572 138.738C301.572 152.453 290.453 163.572 276.738 163.572L39.4057 163.572C25.6904 163.572 14.5719 152.453 14.5719 138.738Z" fill="#BFBFBF" fill-rule="evenodd"/></g></g><path d="M958 125.834C958 112.118 969.118 101 982.834 101L1220.17 101C1233.88 101 1245 112.118 1245 125.834L1245 225.166C1245 238.882 1233.88 250 1220.17 250L982.834 250C969.118 250 958 238.882 958 225.166Z" fill="#BFBFBF" fill-rule="evenodd"/><g filter="url(#fx13)" transform="translate(951 94)"><g><path d="M21.1422 45.9759C21.1422 32.2606 32.2606 21.1421 45.9759 21.1421L283.308 21.1421C297.024 21.1421 308.142 32.2606 308.142 45.9759L308.142 145.308C308.142 159.024 297.024 170.142 283.308 170.142L45.9759 170.142C32.2606 170.142 21.1422 159.024 21.1422 145.308Z" fill="#FF0000" fill-rule="evenodd"/></g></g><path d="M958 125.834C958 112.118 969.118 101 982.834 101L1220.17 101C1233.88 101 1245 112.118 1245 125.834L1245 225.166C1245 238.882 1233.88 250 1220.17 250L982.834 250C969.118 250 958 238.882 958 225.166Z" fill="url(#fill26)" fill-rule="evenodd"/><g filter="url(#fx14)" transform="translate(8 0)"><g><path d="M21.1421 33.9757C21.1421 26.8879 26.8878 21.1421 33.9755 21.1421L1264.31 21.1421C1271.4 21.1421 1277.14 26.8879 1277.14 33.9757L1277.14 85.3086C1277.14 92.3964 1271.4 98.1421 1264.31 98.1421L33.9755 98.1421C26.8878 98.1421 21.1421 92.3964 21.1421 85.3086Z" fill="#FF0000" fill-rule="evenodd"/></g></g><path d="M15 19.8336C15 12.7458 20.7457 7 27.8333 7L1258.17 7C1265.25 7 1271 12.7458 1271 19.8336L1271 71.1664C1271 78.2542 1265.25 84 1258.17 84L27.8333 84C20.7457 84 15 78.2542 15 71.1664Z" fill="url(#fill27)" fill-rule="evenodd"/><text font-family="Calibri,Calibri_MSFontService,sans-serif" font-weight="700" font-size="24" transform="translate(270.391 53)">Deep Dive</text><text font-family="Calibri,Calibri_MSFontService,sans-serif" font-weight="700" font-size="24" transform="translate(377.504 53)">Financial 2022</text><text font-family="Calibri,Calibri_MSFontService,sans-serif" font-weight="700" font-size="24" transform="translate(525.004 53)">-</text><text font-family="Calibri,Calibri_MSFontService,sans-serif" font-weight="700" font-size="24" transform="translate(532.337 53)">2024</text><path d="M0 0 1.2 82.8" stroke="#4472C4" stroke-width="0.666667" stroke-miterlimit="8" fill="none" fill-rule="evenodd" transform="matrix(-1 0 0 1 953.7 2.50005)"/><path d="M0 0 1.2 82.8" stroke="#4472C4" stroke-width="0.666667" stroke-miterlimit="8" fill="none" fill-rule="evenodd" transform="matrix(-1 0 0 1 663.7 2.50005)"/><g filter="url(#fx15)" transform="translate(-9 479)"><g><path d="M14.5719 49.4058C14.5719 30.1676 30.1676 14.5719 49.4058 14.5719L266.738 14.5719C285.976 14.5719 301.572 30.1676 301.572 49.4058L301.572 188.738C301.572 207.976 285.976 223.572 266.738 223.572L49.4058 223.572C30.1676 223.572 14.5719 207.976 14.5719 188.738Z" fill="#BFBFBF" fill-rule="evenodd"/></g></g><path d="M15 537.834C15 518.596 30.5957 503 49.8339 503L267.166 503C286.404 503 302 518.596 302 537.834L302 677.166C302 696.404 286.404 712 267.166 712L49.8339 712C30.5957 712 15 696.404 15 677.166Z" fill="#BFBFBF" fill-rule="evenodd"/><g filter="url(#fx16)" transform="translate(8 496)"><g><path d="M21.1421 55.9761C21.1421 36.7378 36.7378 21.1422 55.976 21.1422L273.308 21.1422C292.546 21.1422 308.142 36.7378 308.142 55.9761L308.142 195.308C308.142 214.546 292.546 230.142 273.308 230.142L55.976 230.142C36.7378 230.142 21.1421 214.546 21.1421 195.308Z" fill="#FF0000" fill-rule="evenodd"/></g></g><path d="M15 537.834C15 518.596 30.5957 503 49.8339 503L267.166 503C286.404 503 302 518.596 302 537.834L302 677.166C302 696.404 286.404 712 267.166 712L49.8339 712C30.5957 712 15 696.404 15 677.166Z" fill="url(#fill28)" fill-rule="evenodd"/><g filter="url(#fx17)" transform="translate(306 479)"><g><path d="M14.5719 49.2391C14.5719 30.093 30.0929 14.5719 49.2391 14.5719L266.905 14.5719C286.051 14.5719 301.572 30.093 301.572 49.2391L301.572 187.905C301.572 207.051 286.051 222.572 266.905 222.572L49.2391 222.572C30.0929 222.572 14.5719 207.051 14.5719 187.905Z" fill="#BFBFBF" fill-rule="evenodd"/></g></g><path d="M330 537.667C330 518.521 345.521 503 364.667 503L582.333 503C601.479 503 617 518.521 617 537.667L617 676.333C617 695.479 601.479 711 582.333 711L364.667 711C345.521 711 330 695.479 330 676.333Z" fill="#BFBFBF" fill-rule="evenodd"/><g filter="url(#fx18)" transform="translate(323 496)"><g><path d="M21.1422 55.8094C21.1422 36.6632 36.6632 21.1422 55.8094 21.1422L273.475 21.1422C292.621 21.1422 308.142 36.6632 308.142 55.8094L308.142 194.475C308.142 213.621 292.621 229.142 273.475 229.142L55.8094 229.142C36.6632 229.142 21.1422 213.621 21.1422 194.475Z" fill="#FF0000" fill-rule="evenodd"/></g></g><path d="M330 537.667C330 518.521 345.521 503 364.667 503L582.333 503C601.479 503 617 518.521 617 537.667L617 676.333C617 695.479 601.479 711 582.333 711L364.667 711C345.521 711 330 695.479 330 676.333Z" fill="url(#fill29)" fill-rule="evenodd"/></g></svg>