<svg width="1280" height="720" xmlns="http://www.w3.org/2000/svg" xmlns:xlink="http://www.w3.org/1999/xlink" overflow="hidden"><defs><filter id="fx0" x="-10%" y="-10%" width="120%" height="120%" filterUnits="userSpaceOnUse" primitiveUnits="userSpaceOnUse"><feComponentTransfer color-interpolation-filters="sRGB"><feFuncR type="discrete" tableValues="1 1"/><feFuncG type="discrete" tableValues="1 1"/><feFuncB type="discrete" tableValues="1 1"/><feFuncA type="linear" slope="0.4" intercept="0"/></feComponentTransfer><feGaussianBlur stdDeviation="4.44444 4.44444"/></filter><filter id="fx1" x="-10%" y="-10%" width="120%" height="120%" filterUnits="userSpaceOnUse" primitiveUnits="userSpaceOnUse"><feComponentTransfer color-interpolation-filters="sRGB"><feFuncR type="discrete" tableValues="0.65098 0.65098"/><feFuncG type="discrete" tableValues="0.65098 0.65098"/><feFuncB type="discrete" tableValues="0.65098 0.65098"/><feFuncA type="linear" slope="0.4" intercept="0"/></feComponentTransfer><feGaussianBlur stdDeviation="6.66667 6.66667"/></filter><filter id="fx2" x="-10%" y="-10%" width="120%" height="120%" filterUnits="userSpaceOnUse" primitiveUnits="userSpaceOnUse"><feComponentTransfer color-interpolation-filters="sRGB"><feFuncR type="discrete" tableValues="1 1"/><feFuncG type="discrete" tableValues="1 1"/><feFuncB type="discrete" tableValues="1 1"/><feFuncA type="linear" slope="0.4" intercept="0"/></feComponentTransfer><feGaussianBlur stdDeviation="4.44444 4.44444"/></filter><filter id="fx3" x="-10%" y="-10%" width="120%" height="120%" filterUnits="userSpaceOnUse" primitiveUnits="userSpaceOnUse"><feComponentTransfer color-interpolation-filters="sRGB"><feFuncR type="discrete" tableValues="0.65098 0.65098"/><feFuncG type="discrete" tableValues="0.65098 0.65098"/><feFuncB type="discrete" tableValues="0.65098 0.65098"/><feFuncA type="linear" slope="0.4" intercept="0"/></feComponentTransfer><feGaussianBlur stdDeviation="6.66667 6.66667"/></filter><filter id="fx4" x="-10%" y="-10%" width="120%" height="120%" filterUnits="userSpaceOnUse" primitiveUnits="userSpaceOnUse"><feComponentTransfer color-interpolation-filters="sRGB"><feFuncR type="discrete" tableValues="1 1"/><feFuncG type="discrete" tableValues="1 1"/><feFuncB type="discrete" tableValues="1 1"/><feFuncA type="linear" slope="0.4" intercept="0"/></feComponentTransfer><feGaussianBlur stdDeviation="4.44444 4.44444"/></filter><filter id="fx5" x="-10%" y="-10%" width="120%" height="120%" filterUnits="userSpaceOnUse" primitiveUnits="userSpaceOnUse"><feComponentTransfer color-interpolation-filters="sRGB"><feFuncR type="discrete" tableValues="0.65098 0.65098"/><feFuncG type="discrete" tableValues="0.65098 0.65098"/><feFuncB type="discrete" tableValues="0.65098 0.65098"/><feFuncA type="linear" slope="0.4" intercept="0"/></feComponentTransfer><feGaussianBlur stdDeviation="6.66667 6.66667"/></filter><filter id="fx6" x="-10%" y="-10%" width="120%" height="120%" filterUnits="userSpaceOnUse" primitiveUnits="userSpaceOnUse"><feComponentTransfer color-interpolation-filters="sRGB"><feFuncR type="discrete" tableValues="1 1"/><feFuncG type="discrete" tableValues="1 1"/><feFuncB type="discrete" tableValues="1 1"/><feFuncA type="linear" slope="0.4" intercept="0"/></feComponentTransfer><feGaussianBlur stdDeviation="4.44444 4.44444"/></filter><filter id="fx7" x="-10%" y="-10%" width="120%" height="120%" filterUnits="userSpaceOnUse" primitiveUnits="userSpaceOnUse"><feComponentTransfer color-interpolation-filters="sRGB"><feFuncR type="discrete" tableValues="0.65098 0.65098"/><feFuncG type="discrete" tableValues="0.65098 0.65098"/><feFuncB type="discrete" tableValues="0.65098 0.65098"/><feFuncA type="linear" slope="0.4" intercept="0"/></feComponentTransfer><feGaussianBlur stdDeviation="6.66667 6.66667"/></filter><filter id="fx8" x="-10%" y="-10%" width="120%" height="120%" filterUnits="userSpaceOnUse" primitiveUnits="userSpaceOnUse"><feComponentTransfer color-interpolation-filters="sRGB"><feFuncR type="discrete" tableValues="1 1"/><feFuncG type="discrete" tableValues="1 1"/><feFuncB type="discrete" tableValues="1 1"/><feFuncA type="linear" slope="0.4" intercept="0"/></feComponentTransfer><feGaussianBlur stdDeviation="4.44444 4.44444"/></filter><filter id="fx9" x="-10%" y="-10%" width="120%" height="120%" filterUnits="userSpaceOnUse" primitiveUnits="userSpaceOnUse"><feComponentTransfer color-interpolation-filters="sRGB"><feFuncR type="discrete" tableValues="0.65098 0.65098"/><feFuncG type="discrete" tableValues="0.65098 0.65098"/><feFuncB type="discrete" tableValues="0.65098 0.65098"/><feFuncA type="linear" slope="0.4" intercept="0"/></feComponentTransfer><feGaussianBlur stdDeviation="6.66667 6.66667"/></filter><filter id="fx10" x="-10%" y="-10%" width="120%" height="120%" filterUnits="userSpaceOnUse" primitiveUnits="userSpaceOnUse"><feComponentTransfer color-interpolation-filters="sRGB"><feFuncR type="discrete" tableValues="1 1"/><feFuncG type="discrete" tableValues="1 1"/><feFuncB type="discrete" tableValues="1 1"/><feFuncA type="linear" slope="0.4" intercept="0"/></feComponentTransfer><feGaussianBlur stdDeviation="4.44444 4.44444"/></filter><filter id="fx11" x="-10%" y="-10%" width="120%" height="120%" filterUnits="userSpaceOnUse" primitiveUnits="userSpaceOnUse"><feComponentTransfer color-interpolation-filters="sRGB"><feFuncR type="discrete" tableValues="0.65098 0.65098"/><feFuncG type="discrete" tableValues="0.65098 0.65098"/><feFuncB type="discrete" tableValues="0.65098 0.65098"/><feFuncA type="linear" slope="0.4" intercept="0"/></feComponentTransfer><feGaussianBlur stdDeviation="6.66667 6.66667"/></filter><filter id="fx12" x="-10%" y="-10%" width="120%" height="120%" filterUnits="userSpaceOnUse" primitiveUnits="userSpaceOnUse"><feComponentTransfer color-interpolation-filters="sRGB"><feFuncR type="discrete" tableValues="1 1"/><feFuncG type="discrete" tableValues="1 1"/><feFuncB type="discrete" tableValues="1 1"/><feFuncA type="linear" slope="0.4" intercept="0"/></feComponentTransfer><feGaussianBlur stdDeviation="4.44444 4.44444"/></filter><filter id="fx13" x="-10%" y="-10%" width="120%" height="120%" filterUnits="userSpaceOnUse" primitiveUnits="userSpaceOnUse"><feComponentTransfer color-interpolation-filters="sRGB"><feFuncR type="discrete" tableValues="0.65098 0.65098"/><feFuncG type="discrete" tableValues="0.65098 0.65098"/><feFuncB type="discrete" tableValues="0.65098 0.65098"/><feFuncA type="linear" slope="0.4" intercept="0"/></feComponentTransfer><feGaussianBlur stdDeviation="6.66667 6.66667"/></filter><filter id="fx14" x="-10%" y="-10%" width="120%" height="120%" filterUnits="userSpaceOnUse" primitiveUnits="userSpaceOnUse"><feComponentTransfer color-interpolation-filters="sRGB"><feFuncR type="discrete" tableValues="1 1"/><feFuncG type="discrete" tableValues="1 1"/><feFuncB type="discrete" tableValues="1 1"/><feFuncA type="linear" slope="0.4" intercept="0"/></feComponentTransfer><feGaussianBlur stdDeviation="4.44444 4.44444"/></filter><filter id="fx15" x="-10%" y="-10%" width="120%" height="120%" filterUnits="userSpaceOnUse" primitiveUnits="userSpaceOnUse"><feComponentTransfer color-interpolation-filters="sRGB"><feFuncR type="discrete" tableValues="0.65098 0.65098"/><feFuncG type="discrete" tableValues="0.65098 0.65098"/><feFuncB type="discrete" tableValues="0.65098 0.65098"/><feFuncA type="linear" slope="0.4" intercept="0"/></feComponentTransfer><feGaussianBlur stdDeviation="6.66667 6.66667"/></filter><filter id="fx16" x="-10%" y="-10%" width="120%" height="120%" filterUnits="userSpaceOnUse" primitiveUnits="userSpaceOnUse"><feComponentTransfer color-interpolation-filters="sRGB"><feFuncR type="discrete" tableValues="0.65098 0.65098"/><feFuncG type="discrete" tableValues="0.65098 0.65098"/><feFuncB type="discrete" tableValues="0.65098 0.65098"/><feFuncA type="linear" slope="0.4" intercept="0"/></feComponentTransfer><feGaussianBlur stdDeviation="6.66667 6.66667"/></filter><clipPath id="clip17"><rect x="0" y="0" width="1280" height="720"/></clipPath><linearGradient x1="44.75" y1="445.25" x2="272.25" y2="672.75" gradientUnits="userSpaceOnUse" spreadMethod="reflect" id="fill18"><stop offset="0" stop-color="#EDEEF3"/><stop offset="0.0588235" stop-color="#EEEFF4"/><stop offset="0.117647" stop-color="#F0F1F5"/><stop offset="0.176471" stop-color="#F2F3F6"/><stop offset="0.235294" stop-color="#F4F4F7"/><stop offset="0.294118" stop-color="#F5F6F8"/><stop offset="0.352941" stop-color="#F7F7F9"/><stop offset="0.411765" stop-color="#F8F8FA"/><stop offset="0.470588" stop-color="#F9F9FB"/><stop offset="0.529412" stop-color="#FAFAFC"/><stop offset="0.588235" stop-color="#FBFBFC"/><stop offset="0.647059" stop-color="#FCFCFD"/><stop offset="0.705882" stop-color="#FDFDFD"/><stop offset="0.764706" stop-color="#FDFDFE"/><stop offset="0.823529" stop-color="#FEFEFE"/><stop offset="0.882353" stop-color="#FEFEFE"/><stop offset="0.941176" stop-color="#FEFEFE"/><stop offset="1" stop-color="#FFFFFF"/></linearGradient><linearGradient x1="359.75" y1="444.25" x2="587.25" y2="671.75" gradientUnits="userSpaceOnUse" spreadMethod="reflect" id="fill19"><stop offset="0" stop-color="#EDEEF3"/><stop offset="0.0588235" stop-color="#EEEFF4"/><stop offset="0.117647" stop-color="#F0F1F5"/><stop offset="0.176471" stop-color="#F2F3F6"/><stop offset="0.235294" stop-color="#F4F4F7"/><stop offset="0.294118" stop-color="#F5F6F8"/><stop offset="0.352941" stop-color="#F7F7F9"/><stop offset="0.411765" stop-color="#F8F8FA"/><stop offset="0.470588" stop-color="#F9F9FB"/><stop offset="0.529412" stop-color="#FAFAFC"/><stop offset="0.588235" stop-color="#FBFBFC"/><stop offset="0.647059" stop-color="#FCFCFD"/><stop offset="0.705882" stop-color="#FDFDFD"/><stop offset="0.764706" stop-color="#FDFDFE"/><stop offset="0.823529" stop-color="#FEFEFE"/><stop offset="0.882353" stop-color="#FEFEFE"/><stop offset="0.941176" stop-color="#FEFEFE"/><stop offset="1" stop-color="#FFFFFF"/></linearGradient><linearGradient x1="710" y1="32" x2="1202" y2="524" gradientUnits="userSpaceOnUse" spreadMethod="reflect" id="fill20"><stop offset="0" stop-color="#EDEEF3"/><stop offset="0.0588235" stop-color="#EEEFF4"/><stop offset="0.117647" stop-color="#F0F1F5"/><stop offset="0.176471" stop-color="#F2F3F6"/><stop offset="0.235294" stop-color="#F4F4F7"/><stop offset="0.294118" stop-color="#F5F6F8"/><stop offset="0.352941" stop-color="#F7F7F9"/><stop offset="0.411765" stop-color="#F8F8FA"/><stop offset="0.470588" stop-color="#F9F9FB"/><stop offset="0.529412" stop-color="#FAFAFC"/><stop offset="0.588235" stop-color="#FBFBFC"/><stop offset="0.647059" stop-color="#FCFCFD"/><stop offset="0.705882" stop-color="#FDFDFD"/><stop offset="0.764706" stop-color="#FDFDFE"/><stop offset="0.823529" stop-color="#FEFEFE"/><stop offset="0.882353" stop-color="#FEFEFE"/><stop offset="0.941176" stop-color="#FEFEFE"/><stop offset="1" stop-color="#FFFFFF"/></linearGradient><linearGradient x1="498.25" y1="285.75" x2="1084.75" y2="872.25" gradientUnits="userSpaceOnUse" spreadMethod="reflect" id="fill21"><stop offset="0" stop-color="#EDEEF3"/><stop offset="0.0588235" stop-color="#EEEFF4"/><stop offset="0.117647" stop-color="#F0F1F5"/><stop offset="0.176471" stop-color="#F2F3F6"/><stop offset="0.235294" stop-color="#F4F4F7"/><stop offset="0.294118" stop-color="#F5F6F8"/><stop offset="0.352941" stop-color="#F7F7F9"/><stop offset="0.411765" stop-color="#F8F8FA"/><stop offset="0.470588" stop-color="#F9F9FB"/><stop offset="0.529412" stop-color="#FAFAFC"/><stop offset="0.588235" stop-color="#FBFBFC"/><stop offset="0.647059" stop-color="#FCFCFD"/><stop offset="0.705882" stop-color="#FDFDFD"/><stop offset="0.764706" stop-color="#FDFDFE"/><stop offset="0.823529" stop-color="#FEFEFE"/><stop offset="0.882353" stop-color="#FEFEFE"/><stop offset="0.941176" stop-color="#FEFEFE"/><stop offset="1" stop-color="#FFFFFF"/></linearGradient><linearGradient x1="44.75" y1="72.25" x2="272.25" y2="299.75" gradientUnits="userSpaceOnUse" spreadMethod="reflect" id="fill22"><stop offset="0" stop-color="#EDEEF3"/><stop offset="0.0588235" stop-color="#EEEFF4"/><stop offset="0.117647" stop-color="#F0F1F5"/><stop offset="0.176471" stop-color="#F2F3F6"/><stop offset="0.235294" stop-color="#F4F4F7"/><stop offset="0.294118" stop-color="#F5F6F8"/><stop offset="0.352941" stop-color="#F7F7F9"/><stop offset="0.411765" stop-color="#F8F8FA"/><stop offset="0.470588" stop-color="#F9F9FB"/><stop offset="0.529412" stop-color="#FAFAFC"/><stop offset="0.588235" stop-color="#FBFBFC"/><stop offset="0.647059" stop-color="#FCFCFD"/><stop offset="0.705882" stop-color="#FDFDFD"/><stop offset="0.764706" stop-color="#FDFDFE"/><stop offset="0.823529" stop-color="#FEFEFE"/><stop offset="0.882353" stop-color="#FEFEFE"/><stop offset="0.941176" stop-color="#FEFEFE"/><stop offset="1" stop-color="#FFFFFF"/></linearGradient><linearGradient x1="360" y1="72" x2="587" y2="299" gradientUnits="userSpaceOnUse" spreadMethod="reflect" id="fill23"><stop offset="0" stop-color="#EDEEF3"/><stop offset="0.0588235" stop-color="#EEEFF4"/><stop offset="0.117647" stop-color="#F0F1F5"/><stop offset="0.176471" stop-color="#F2F3F6"/><stop offset="0.235294" stop-color="#F4F4F7"/><stop offset="0.294118" stop-color="#F5F6F8"/><stop offset="0.352941" stop-color="#F7F7F9"/><stop offset="0.411765" stop-color="#F8F8FA"/><stop offset="0.470588" stop-color="#F9F9FB"/><stop offset="0.529412" stop-color="#FAFAFC"/><stop offset="0.588235" stop-color="#FBFBFC"/><stop offset="0.647059" stop-color="#FCFCFD"/><stop offset="0.705882" stop-color="#FDFDFD"/><stop offset="0.764706" stop-color="#FDFDFE"/><stop offset="0.823529" stop-color="#FEFEFE"/><stop offset="0.882353" stop-color="#FEFEFE"/><stop offset="0.941176" stop-color="#FEFEFE"/><stop offset="1" stop-color="#FFFFFF"/></linearGradient><linearGradient x1="44.75" y1="258.25" x2="272.25" y2="485.75" gradientUnits="userSpaceOnUse" spreadMethod="reflect" id="fill24"><stop offset="0" stop-color="#EDEEF3"/><stop offset="0.0588235" stop-color="#EEEFF4"/><stop offset="0.117647" stop-color="#F0F1F5"/><stop offset="0.176471" stop-color="#F2F3F6"/><stop offset="0.235294" stop-color="#F4F4F7"/><stop offset="0.294118" stop-color="#F5F6F8"/><stop offset="0.352941" stop-color="#F7F7F9"/><stop offset="0.411765" stop-color="#F8F8FA"/><stop offset="0.470588" stop-color="#F9F9FB"/><stop offset="0.529412" stop-color="#FAFAFC"/><stop offset="0.588235" stop-color="#FBFBFC"/><stop offset="0.647059" stop-color="#FCFCFD"/><stop offset="0.705882" stop-color="#FDFDFD"/><stop offset="0.764706" stop-color="#FDFDFE"/><stop offset="0.823529" stop-color="#FEFEFE"/><stop offset="0.882353" stop-color="#FEFEFE"/><stop offset="0.941176" stop-color="#FEFEFE"/><stop offset="1" stop-color="#FFFFFF"/></linearGradient><linearGradient x1="359.75" y1="257.25" x2="587.25" y2="484.75" gradientUnits="userSpaceOnUse" spreadMethod="reflect" id="fill25"><stop offset="0" stop-color="#EDEEF3"/><stop offset="0.0588235" stop-color="#EEEFF4"/><stop offset="0.117647" stop-color="#F0F1F5"/><stop offset="0.176471" stop-color="#F2F3F6"/><stop offset="0.235294" stop-color="#F4F4F7"/><stop offset="0.294118" stop-color="#F5F6F8"/><stop offset="0.352941" stop-color="#F7F7F9"/><stop offset="0.411765" stop-color="#F8F8FA"/><stop offset="0.470588" stop-color="#F9F9FB"/><stop offset="0.529412" stop-color="#FAFAFC"/><stop offset="0.588235" stop-color="#FBFBFC"/><stop offset="0.647059" stop-color="#FCFCFD"/><stop offset="0.705882" stop-color="#FDFDFD"/><stop offset="0.764706" stop-color="#FDFDFE"/><stop offset="0.823529" stop-color="#FEFEFE"/><stop offset="0.882353" stop-color="#FEFEFE"/><stop offset="0.941176" stop-color="#FEFEFE"/><stop offset="1" stop-color="#FFFFFF"/></linearGradient><linearGradient x1="298.25" y1="-276.25" x2="941.75" y2="367.25" gradientUnits="userSpaceOnUse" spreadMethod="reflect" id="fill26"><stop offset="0" stop-color="#EDEEF3"/><stop offset="0.0588235" stop-color="#EEEFF4"/><stop offset="0.117647" stop-color="#F0F1F5"/><stop offset="0.176471" stop-color="#F2F3F6"/><stop offset="0.235294" stop-color="#F4F4F7"/><stop offset="0.294118" stop-color="#F5F6F8"/><stop offset="0.352941" stop-color="#F7F7F9"/><stop offset="0.411765" stop-color="#F8F8FA"/><stop offset="0.470588" stop-color="#F9F9FB"/><stop offset="0.529412" stop-color="#FAFAFC"/><stop offset="0.588235" stop-color="#FBFBFC"/><stop offset="0.647059" stop-color="#FCFCFD"/><stop offset="0.705882" stop-color="#FDFDFD"/><stop offset="0.764706" stop-color="#FDFDFE"/><stop offset="0.823529" stop-color="#FEFEFE"/><stop offset="0.882353" stop-color="#FEFEFE"/><stop offset="0.941176" stop-color="#FEFEFE"/><stop offset="1" stop-color="#FFFFFF"/></linearGradient></defs><g clip-path="url(#clip17)"><rect x="0" y="0" width="1280" height="720" fill="#FFFFFF"/><g filter="url(#fx0)" transform="translate(-9 451)"><g><path d="M14.5719 42.5723C14.5719 27.1081 27.1081 14.5719 42.5723 14.5719L273.572 14.5719C289.036 14.5719 301.572 27.1081 301.572 42.5723L301.572 154.571C301.572 170.036 289.036 182.572 273.572 182.572L42.5723 182.572C27.1081 182.572 14.5719 170.036 14.5719 154.571Z" fill="#BFBFBF" fill-rule="evenodd"/></g></g><path d="M15 503C15 487.536 27.5362 475 43.0004 475L274 475C289.464 475 302 487.536 302 503L302 615C302 630.464 289.464 643 274 643L43.0004 643C27.5362 643 15 630.464 15 615Z" fill="#BFBFBF" fill-rule="evenodd"/><g filter="url(#fx1)" transform="translate(8 468)"><g><path d="M21.1421 49.1426C21.1421 33.6784 33.6783 21.1422 49.1425 21.1422L280.142 21.1422C295.606 21.1422 308.142 33.6784 308.142 49.1426L308.142 161.142C308.142 176.606 295.606 189.142 280.142 189.142L49.1425 189.142C33.6783 189.142 21.1421 176.606 21.1421 161.142Z" fill="#FF0000" fill-rule="evenodd"/></g></g><path d="M15 503C15 487.536 27.5362 475 43.0004 475L274 475C289.464 475 302 487.536 302 503L302 615C302 630.464 289.464 643 274 643L43.0004 643C27.5362 643 15 630.464 15 615Z" fill="url(#fill18)" fill-rule="evenodd"/><g filter="url(#fx2)" transform="translate(306 450)"><g><path d="M14.5719 42.5723C14.5719 27.1081 27.1081 14.5719 42.5723 14.5719L273.572 14.5719C289.036 14.5719 301.572 27.1081 301.572 42.5723L301.572 154.571C301.572 170.036 289.036 182.572 273.572 182.572L42.5723 182.572C27.1081 182.572 14.5719 170.036 14.5719 154.571Z" fill="#BFBFBF" fill-rule="evenodd"/></g></g><path d="M330 502C330 486.536 342.536 474 358 474L589 474C604.464 474 617 486.536 617 502L617 614C617 629.464 604.464 642 589 642L358 642C342.536 642 330 629.464 330 614Z" fill="#BFBFBF" fill-rule="evenodd"/><g filter="url(#fx3)" transform="translate(323 467)"><g><path d="M21.1422 49.1426C21.1422 33.6784 33.6784 21.1422 49.1425 21.1422L280.142 21.1422C295.606 21.1422 308.142 33.6784 308.142 49.1426L308.142 161.142C308.142 176.606 295.606 189.142 280.142 189.142L49.1425 189.142C33.6784 189.142 21.1422 176.606 21.1422 161.142Z" fill="#FF0000" fill-rule="evenodd"/></g></g><path d="M330 502C330 486.536 342.536 474 358 474L589 474C604.464 474 617 486.536 617 502L617 614C617 629.464 604.464 642 589 642L358 642C342.536 642 330 629.464 330 614Z" fill="url(#fill19)" fill-rule="evenodd"/><g filter="url(#fx4)" transform="translate(616 78)"><g><path d="M14.5719 73.24C14.5719 40.8385 40.8385 14.5719 73.2399 14.5719L587.904 14.5719C620.305 14.5719 646.572 40.8385 646.572 73.24L646.572 307.904C646.572 340.305 620.305 366.572 587.904 366.572L73.2399 366.572C40.8385 366.572 14.5719 340.305 14.5719 307.904Z" fill="#BFBFBF" fill-rule="evenodd"/></g></g><path d="M640 160.668C640 128.267 666.267 102 698.668 102L1213.33 102C1245.73 102 1272 128.267 1272 160.668L1272 395.332C1272 427.733 1245.73 454 1213.33 454L698.668 454C666.267 454 640 427.733 640 395.332Z" fill="#BFBFBF" fill-rule="evenodd"/><g filter="url(#fx5)" transform="translate(633 95)"><g><path d="M21.1422 79.8102C21.1422 47.4087 47.4087 21.1421 79.8102 21.1421L594.474 21.1421C626.876 21.1421 653.142 47.4087 653.142 79.8102L653.142 314.474C653.142 346.876 626.876 373.142 594.474 373.142L79.8102 373.142C47.4087 373.142 21.1422 346.876 21.1422 314.474Z" fill="#FF0000" fill-rule="evenodd"/></g></g><path d="M640 160.668C640 128.267 666.267 102 698.668 102L1213.33 102C1245.73 102 1272 128.267 1272 160.668L1272 395.332C1272 427.733 1245.73 454 1213.33 454L698.668 454C666.267 454 640 427.733 640 395.332Z" fill="url(#fill20)" fill-rule="evenodd"/><g filter="url(#fx6)" transform="translate(287 449)"><g><path d="M14.5719 49.9065C14.5719 30.3917 30.3917 14.5719 49.9063 14.5719L940.237 14.5719C959.752 14.5719 975.572 30.3917 975.572 49.9065L975.572 191.237C975.572 210.752 959.752 226.572 940.237 226.572L49.9063 226.572C30.3917 226.572 14.5719 210.752 14.5719 191.237Z" fill="#BFBFBF" fill-rule="evenodd"/></g></g><path d="M311 508.335C311 488.82 326.82 473 346.334 473L1236.67 473C1256.18 473 1272 488.82 1272 508.335L1272 649.665C1272 669.18 1256.18 685 1236.67 685L346.334 685C326.82 685 311 669.18 311 649.665Z" fill="#BFBFBF" fill-rule="evenodd"/><g filter="url(#fx7)" transform="translate(304 466)"><g><path d="M21.1422 56.4767C21.1422 36.962 36.9619 21.1422 56.4766 21.1422L946.808 21.1422C966.322 21.1422 982.142 36.962 982.142 56.4767L982.142 197.808C982.142 217.322 966.322 233.142 946.808 233.142L56.4766 233.142C36.9619 233.142 21.1422 217.322 21.1422 197.808Z" fill="#FF0000" fill-rule="evenodd"/></g></g><path d="M311 508.335C311 488.82 326.82 473 346.334 473L1236.67 473C1256.18 473 1272 488.82 1272 508.335L1272 649.665C1272 669.18 1256.18 685 1236.67 685L346.334 685C326.82 685 311 669.18 311 649.665Z" fill="url(#fill21)" fill-rule="evenodd"/><g filter="url(#fx8)" transform="translate(-9 78)"><g><path d="M14.5719 42.5723C14.5719 27.1081 27.1081 14.5719 42.5723 14.5719L273.572 14.5719C289.036 14.5719 301.572 27.1081 301.572 42.5723L301.572 154.571C301.572 170.036 289.036 182.572 273.572 182.572L42.5723 182.572C27.1081 182.572 14.5719 170.036 14.5719 154.571Z" fill="#BFBFBF" fill-rule="evenodd"/></g></g><path d="M15 130C15 114.536 27.5362 102 43.0004 102L274 102C289.464 102 302 114.536 302 130L302 242C302 257.464 289.464 270 274 270L43.0004 270C27.5362 270 15 257.464 15 242Z" fill="#BFBFBF" fill-rule="evenodd"/><g filter="url(#fx9)" transform="translate(8 95)"><g><path d="M21.1421 49.1426C21.1421 33.6783 33.6783 21.1421 49.1425 21.1421L280.142 21.1421C295.606 21.1421 308.142 33.6783 308.142 49.1426L308.142 161.142C308.142 176.606 295.606 189.142 280.142 189.142L49.1425 189.142C33.6783 189.142 21.1421 176.606 21.1421 161.142Z" fill="#FF0000" fill-rule="evenodd"/></g></g><path d="M15 130C15 114.536 27.5362 102 43.0004 102L274 102C289.464 102 302 114.536 302 130L302 242C302 257.464 289.464 270 274 270L43.0004 270C27.5362 270 15 257.464 15 242Z" fill="url(#fill22)" fill-rule="evenodd"/><g filter="url(#fx10)" transform="translate(306 78)"><g><path d="M14.5719 42.4057C14.5719 27.0335 27.0335 14.5719 42.4056 14.5719L273.738 14.5719C289.11 14.5719 301.572 27.0335 301.572 42.4057L301.572 153.738C301.572 169.11 289.11 181.572 273.738 181.572L42.4056 181.572C27.0335 181.572 14.5719 169.11 14.5719 153.738Z" fill="#BFBFBF" fill-rule="evenodd"/></g></g><path d="M330 129.834C330 114.462 342.462 102 357.834 102L589.166 102C604.538 102 617 114.462 617 129.834L617 241.166C617 256.538 604.538 269 589.166 269L357.834 269C342.462 269 330 256.538 330 241.166Z" fill="#BFBFBF" fill-rule="evenodd"/><g filter="url(#fx11)" transform="translate(323 95)"><g><path d="M21.1422 48.9759C21.1422 33.6037 33.6037 21.1421 48.9759 21.1421L280.308 21.1421C295.681 21.1421 308.142 33.6037 308.142 48.9759L308.142 160.308C308.142 175.681 295.681 188.142 280.308 188.142L48.9759 188.142C33.6037 188.142 21.1422 175.681 21.1422 160.308Z" fill="#FF0000" fill-rule="evenodd"/></g></g><path d="M330 129.834C330 114.462 342.462 102 357.834 102L589.166 102C604.538 102 617 114.462 617 129.834L617 241.166C617 256.538 604.538 269 589.166 269L357.834 269C342.462 269 330 256.538 330 241.166Z" fill="url(#fill23)" fill-rule="evenodd"/><g filter="url(#fx12)" transform="translate(-9 264)"><g><path d="M14.5719 42.5723C14.5719 27.1081 27.1081 14.5719 42.5723 14.5719L273.572 14.5719C289.036 14.5719 301.572 27.1081 301.572 42.5723L301.572 154.571C301.572 170.036 289.036 182.572 273.572 182.572L42.5723 182.572C27.1081 182.572 14.5719 170.036 14.5719 154.571Z" fill="#BFBFBF" fill-rule="evenodd"/></g></g><path d="M15 316C15 300.536 27.5362 288 43.0004 288L274 288C289.464 288 302 300.536 302 316L302 428C302 443.464 289.464 456 274 456L43.0004 456C27.5362 456 15 443.464 15 428Z" fill="#BFBFBF" fill-rule="evenodd"/><g filter="url(#fx13)" transform="translate(8 281)"><g><path d="M21.1421 49.1426C21.1421 33.6784 33.6783 21.1422 49.1425 21.1422L280.142 21.1422C295.606 21.1422 308.142 33.6784 308.142 49.1426L308.142 161.142C308.142 176.606 295.606 189.142 280.142 189.142L49.1425 189.142C33.6783 189.142 21.1421 176.606 21.1421 161.142Z" fill="#FF0000" fill-rule="evenodd"/></g></g><path d="M15 316C15 300.536 27.5362 288 43.0004 288L274 288C289.464 288 302 300.536 302 316L302 428C302 443.464 289.464 456 274 456L43.0004 456C27.5362 456 15 443.464 15 428Z" fill="url(#fill24)" fill-rule="evenodd"/><g filter="url(#fx14)" transform="translate(306 263)"><g><path d="M14.5719 42.5723C14.5719 27.1081 27.1081 14.5719 42.5723 14.5719L273.572 14.5719C289.036 14.5719 301.572 27.1081 301.572 42.5723L301.572 154.571C301.572 170.036 289.036 182.572 273.572 182.572L42.5723 182.572C27.1081 182.572 14.5719 170.036 14.5719 154.571Z" fill="#BFBFBF" fill-rule="evenodd"/></g></g><path d="M330 315C330 299.536 342.536 287 358 287L589 287C604.464 287 617 299.536 617 315L617 427C617 442.464 604.464 455 589 455L358 455C342.536 455 330 442.464 330 427Z" fill="#BFBFBF" fill-rule="evenodd"/><g filter="url(#fx15)" transform="translate(323 280)"><g><path d="M21.1422 49.1426C21.1422 33.6784 33.6784 21.1422 49.1425 21.1422L280.142 21.1422C295.606 21.1422 308.142 33.6784 308.142 49.1426L308.142 161.142C308.142 176.606 295.606 189.142 280.142 189.142L49.1425 189.142C33.6784 189.142 21.1422 176.606 21.1422 161.142Z" fill="#FF0000" fill-rule="evenodd"/></g></g><path d="M330 315C330 299.536 342.536 287 358 287L589 287C604.464 287 617 299.536 617 315L617 427C617 442.464 604.464 455 589 455L358 455C342.536 455 330 442.464 330 427Z" fill="url(#fill25)" fill-rule="evenodd"/><g filter="url(#fx16)" transform="translate(8 0)"><g><path d="M21.1421 33.9753C21.1421 26.8877 26.8877 21.1421 33.9752 21.1421L1218.31 21.1421C1225.4 21.1421 1231.14 26.8877 1231.14 33.9753L1231.14 85.309C1231.14 92.3966 1225.4 98.1421 1218.31 98.1421L33.9752 98.1421C26.8877 98.1421 21.1421 92.3966 21.1421 85.309Z" fill="#FF0000" fill-rule="evenodd"/></g></g><path d="M15 19.8331C15 12.7456 20.7456 7 27.8331 7L1212.17 7C1219.25 7 1225 12.7456 1225 19.8331L1225 71.1669C1225 78.2544 1219.25 84 1212.17 84L27.8331 84C20.7456 84 15 78.2544 15 71.1669Z" fill="url(#fill26)" fill-rule="evenodd"/></g></svg>