<svg width="1280" height="720" xmlns="http://www.w3.org/2000/svg" xmlns:xlink="http://www.w3.org/1999/xlink" overflow="hidden"><defs><filter id="fx0" x="-10%" y="-10%" width="120%" height="120%" filterUnits="userSpaceOnUse" primitiveUnits="userSpaceOnUse"><feComponentTransfer color-interpolation-filters="sRGB"><feFuncR type="discrete" tableValues="1 1"/><feFuncG type="discrete" tableValues="1 1"/><feFuncB type="discrete" tableValues="1 1"/><feFuncA type="linear" slope="0.4" intercept="0"/></feComponentTransfer><feGaussianBlur stdDeviation="4.44444 4.44444"/></filter><filter id="fx1" x="-10%" y="-10%" width="120%" height="120%" filterUnits="userSpaceOnUse" primitiveUnits="userSpaceOnUse"><feComponentTransfer color-interpolation-filters="sRGB"><feFuncR type="discrete" tableValues="0.65098 0.65098"/><feFuncG type="discrete" tableValues="0.65098 0.65098"/><feFuncB type="discrete" tableValues="0.65098 0.65098"/><feFuncA type="linear" slope="0.4" intercept="0"/></feComponentTransfer><feGaussianBlur stdDeviation="6.66667 6.66667"/></filter><filter id="fx2" x="-10%" y="-10%" width="120%" height="120%" filterUnits="userSpaceOnUse" primitiveUnits="userSpaceOnUse"><feComponentTransfer color-interpolation-filters="sRGB"><feFuncR type="discrete" tableValues="1 1"/><feFuncG type="discrete" tableValues="1 1"/><feFuncB type="discrete" tableValues="1 1"/><feFuncA type="linear" slope="0.4" intercept="0"/></feComponentTransfer><feGaussianBlur stdDeviation="4.44444 4.44444"/></filter><filter id="fx3" x="-10%" y="-10%" width="120%" height="120%" filterUnits="userSpaceOnUse" primitiveUnits="userSpaceOnUse"><feComponentTransfer color-interpolation-filters="sRGB"><feFuncR type="discrete" tableValues="0.65098 0.65098"/><feFuncG type="discrete" tableValues="0.65098 0.65098"/><feFuncB type="discrete" tableValues="0.65098 0.65098"/><feFuncA type="linear" slope="0.4" intercept="0"/></feComponentTransfer><feGaussianBlur stdDeviation="6.66667 6.66667"/></filter><filter id="fx4" x="-10%" y="-10%" width="120%" height="120%" filterUnits="userSpaceOnUse" primitiveUnits="userSpaceOnUse"><feComponentTransfer color-interpolation-filters="sRGB"><feFuncR type="discrete" tableValues="1 1"/><feFuncG type="discrete" tableValues="1 1"/><feFuncB type="discrete" tableValues="1 1"/><feFuncA type="linear" slope="0.4" intercept="0"/></feComponentTransfer><feGaussianBlur stdDeviation="4.44444 4.44444"/></filter><filter id="fx5" x="-10%" y="-10%" width="120%" height="120%" filterUnits="userSpaceOnUse" primitiveUnits="userSpaceOnUse"><feComponentTransfer color-interpolation-filters="sRGB"><feFuncR type="discrete" tableValues="0.65098 0.65098"/><feFuncG type="discrete" tableValues="0.65098 0.65098"/><feFuncB type="discrete" tableValues="0.65098 0.65098"/><feFuncA type="linear" slope="0.4" intercept="0"/></feComponentTransfer><feGaussianBlur stdDeviation="6.66667 6.66667"/></filter><filter id="fx6" x="-10%" y="-10%" width="120%" height="120%" filterUnits="userSpaceOnUse" primitiveUnits="userSpaceOnUse"><feComponentTransfer color-interpolation-filters="sRGB"><feFuncR type="discrete" tableValues="1 1"/><feFuncG type="discrete" tableValues="1 1"/><feFuncB type="discrete" tableValues="1 1"/><feFuncA type="linear" slope="0.4" intercept="0"/></feComponentTransfer><feGaussianBlur stdDeviation="4.44444 4.44444"/></filter><filter id="fx7" x="-10%" y="-10%" width="120%" height="120%" filterUnits="userSpaceOnUse" primitiveUnits="userSpaceOnUse"><feComponentTransfer color-interpolation-filters="sRGB"><feFuncR type="discrete" tableValues="0.65098 0.65098"/><feFuncG type="discrete" tableValues="0.65098 0.65098"/><feFuncB type="discrete" tableValues="0.65098 0.65098"/><feFuncA type="linear" slope="0.4" intercept="0"/></feComponentTransfer><feGaussianBlur stdDeviation="6.66667 6.66667"/></filter><filter id="fx8" x="-10%" y="-10%" width="120%" height="120%" filterUnits="userSpaceOnUse" primitiveUnits="userSpaceOnUse"><feComponentTransfer color-interpolation-filters="sRGB"><feFuncR type="discrete" tableValues="1 1"/><feFuncG type="discrete" tableValues="1 1"/><feFuncB type="discrete" tableValues="1 1"/><feFuncA type="linear" slope="0.4" intercept="0"/></feComponentTransfer><feGaussianBlur stdDeviation="4.44444 4.44444"/></filter><filter id="fx9" x="-10%" y="-10%" width="120%" height="120%" filterUnits="userSpaceOnUse" primitiveUnits="userSpaceOnUse"><feComponentTransfer color-interpolation-filters="sRGB"><feFuncR type="discrete" tableValues="0.65098 0.65098"/><feFuncG type="discrete" tableValues="0.65098 0.65098"/><feFuncB type="discrete" tableValues="0.65098 0.65098"/><feFuncA type="linear" slope="0.4" intercept="0"/></feComponentTransfer><feGaussianBlur stdDeviation="6.66667 6.66667"/></filter><filter id="fx10" x="-10%" y="-10%" width="120%" height="120%" filterUnits="userSpaceOnUse" primitiveUnits="userSpaceOnUse"><feComponentTransfer color-interpolation-filters="sRGB"><feFuncR type="discrete" tableValues="0.65098 0.65098"/><feFuncG type="discrete" tableValues="0.65098 0.65098"/><feFuncB type="discrete" tableValues="0.65098 0.65098"/><feFuncA type="linear" slope="0.4" intercept="0"/></feComponentTransfer><feGaussianBlur stdDeviation="6.66667 6.66667"/></filter><filter id="fx11" x="-10%" y="-10%" width="120%" height="120%" filterUnits="userSpaceOnUse" primitiveUnits="userSpaceOnUse"><feComponentTransfer color-interpolation-filters="sRGB"><feFuncR type="discrete" tableValues="1 1"/><feFuncG type="discrete" tableValues="1 1"/><feFuncB type="discrete" tableValues="1 1"/><feFuncA type="linear" slope="0.4" intercept="0"/></feComponentTransfer><feGaussianBlur stdDeviation="4.44444 4.44444"/></filter><filter id="fx12" x="-10%" y="-10%" width="120%" height="120%" filterUnits="userSpaceOnUse" primitiveUnits="userSpaceOnUse"><feComponentTransfer color-interpolation-filters="sRGB"><feFuncR type="discrete" tableValues="0.65098 0.65098"/><feFuncG type="discrete" tableValues="0.65098 0.65098"/><feFuncB type="discrete" tableValues="0.65098 0.65098"/><feFuncA type="linear" slope="0.4" intercept="0"/></feComponentTransfer><feGaussianBlur stdDeviation="6.66667 6.66667"/></filter><clipPath id="clip13"><rect x="0" y="0" width="1280" height="720"/></clipPath><linearGradient x1="687" y1="230" x2="1207" y2="750" gradientUnits="userSpaceOnUse" spreadMethod="reflect" id="fill14"><stop offset="0" stop-color="#EDEEF3"/><stop offset="0.0588235" stop-color="#EEEFF4"/><stop offset="0.117647" stop-color="#F0F1F5"/><stop offset="0.176471" stop-color="#F2F3F6"/><stop offset="0.235294" stop-color="#F4F4F7"/><stop offset="0.294118" stop-color="#F5F6F8"/><stop offset="0.352941" stop-color="#F7F7F9"/><stop offset="0.411765" stop-color="#F8F8FA"/><stop offset="0.470588" stop-color="#F9F9FB"/><stop offset="0.529412" stop-color="#FAFAFC"/><stop offset="0.588235" stop-color="#FBFBFC"/><stop offset="0.647059" stop-color="#FCFCFD"/><stop offset="0.705882" stop-color="#FDFDFD"/><stop offset="0.764706" stop-color="#FDFDFE"/><stop offset="0.823529" stop-color="#FEFEFE"/><stop offset="0.882353" stop-color="#FEFEFE"/><stop offset="0.941176" stop-color="#FEFEFE"/><stop offset="1" stop-color="#FFFFFF"/></linearGradient><linearGradient x1="49.5" y1="67.5" x2="267.5" y2="285.5" gradientUnits="userSpaceOnUse" spreadMethod="reflect" id="fill15"><stop offset="0" stop-color="#EDEEF3"/><stop offset="0.0588235" stop-color="#EEEFF4"/><stop offset="0.117647" stop-color="#F0F1F5"/><stop offset="0.176471" stop-color="#F2F3F6"/><stop offset="0.235294" stop-color="#F4F4F7"/><stop offset="0.294118" stop-color="#F5F6F8"/><stop offset="0.352941" stop-color="#F7F7F9"/><stop offset="0.411765" stop-color="#F8F8FA"/><stop offset="0.470588" stop-color="#F9F9FB"/><stop offset="0.529412" stop-color="#FAFAFC"/><stop offset="0.588235" stop-color="#FBFBFC"/><stop offset="0.647059" stop-color="#FCFCFD"/><stop offset="0.705882" stop-color="#FDFDFD"/><stop offset="0.764706" stop-color="#FDFDFE"/><stop offset="0.823529" stop-color="#FEFEFE"/><stop offset="0.882353" stop-color="#FEFEFE"/><stop offset="0.941176" stop-color="#FEFEFE"/><stop offset="1" stop-color="#FFFFFF"/></linearGradient><linearGradient x1="364.5" y1="67.5" x2="582.5" y2="285.5" gradientUnits="userSpaceOnUse" spreadMethod="reflect" id="fill16"><stop offset="0" stop-color="#EDEEF3"/><stop offset="0.0588235" stop-color="#EEEFF4"/><stop offset="0.117647" stop-color="#F0F1F5"/><stop offset="0.176471" stop-color="#F2F3F6"/><stop offset="0.235294" stop-color="#F4F4F7"/><stop offset="0.294118" stop-color="#F5F6F8"/><stop offset="0.352941" stop-color="#F7F7F9"/><stop offset="0.411765" stop-color="#F8F8FA"/><stop offset="0.470588" stop-color="#F9F9FB"/><stop offset="0.529412" stop-color="#FAFAFC"/><stop offset="0.588235" stop-color="#FBFBFC"/><stop offset="0.647059" stop-color="#FCFCFD"/><stop offset="0.705882" stop-color="#FDFDFD"/><stop offset="0.764706" stop-color="#FDFDFE"/><stop offset="0.823529" stop-color="#FEFEFE"/><stop offset="0.882353" stop-color="#FEFEFE"/><stop offset="0.941176" stop-color="#FEFEFE"/><stop offset="1" stop-color="#FFFFFF"/></linearGradient><linearGradient x1="677.5" y1="67.5" x2="895.5" y2="285.5" gradientUnits="userSpaceOnUse" spreadMethod="reflect" id="fill17"><stop offset="0" stop-color="#EDEEF3"/><stop offset="0.0588235" stop-color="#EEEFF4"/><stop offset="0.117647" stop-color="#F0F1F5"/><stop offset="0.176471" stop-color="#F2F3F6"/><stop offset="0.235294" stop-color="#F4F4F7"/><stop offset="0.294118" stop-color="#F5F6F8"/><stop offset="0.352941" stop-color="#F7F7F9"/><stop offset="0.411765" stop-color="#F8F8FA"/><stop offset="0.470588" stop-color="#F9F9FB"/><stop offset="0.529412" stop-color="#FAFAFC"/><stop offset="0.588235" stop-color="#FBFBFC"/><stop offset="0.647059" stop-color="#FCFCFD"/><stop offset="0.705882" stop-color="#FDFDFD"/><stop offset="0.764706" stop-color="#FDFDFE"/><stop offset="0.823529" stop-color="#FEFEFE"/><stop offset="0.882353" stop-color="#FEFEFE"/><stop offset="0.941176" stop-color="#FEFEFE"/><stop offset="1" stop-color="#FFFFFF"/></linearGradient><linearGradient x1="992.5" y1="66.5" x2="1210.5" y2="284.5" gradientUnits="userSpaceOnUse" spreadMethod="reflect" id="fill18"><stop offset="0" stop-color="#EDEEF3"/><stop offset="0.0588235" stop-color="#EEEFF4"/><stop offset="0.117647" stop-color="#F0F1F5"/><stop offset="0.176471" stop-color="#F2F3F6"/><stop offset="0.235294" stop-color="#F4F4F7"/><stop offset="0.294118" stop-color="#F5F6F8"/><stop offset="0.352941" stop-color="#F7F7F9"/><stop offset="0.411765" stop-color="#F8F8FA"/><stop offset="0.470588" stop-color="#F9F9FB"/><stop offset="0.529412" stop-color="#FAFAFC"/><stop offset="0.588235" stop-color="#FBFBFC"/><stop offset="0.647059" stop-color="#FCFCFD"/><stop offset="0.705882" stop-color="#FDFDFD"/><stop offset="0.764706" stop-color="#FDFDFE"/><stop offset="0.823529" stop-color="#FEFEFE"/><stop offset="0.882353" stop-color="#FEFEFE"/><stop offset="0.941176" stop-color="#FEFEFE"/><stop offset="1" stop-color="#FFFFFF"/></linearGradient><linearGradient x1="309.75" y1="-287.75" x2="976.25" y2="378.75" gradientUnits="userSpaceOnUse" spreadMethod="reflect" id="fill19"><stop offset="0" stop-color="#EDEEF3"/><stop offset="0.0588235" stop-color="#EEEFF4"/><stop offset="0.117647" stop-color="#F0F1F5"/><stop offset="0.176471" stop-color="#F2F3F6"/><stop offset="0.235294" stop-color="#F4F4F7"/><stop offset="0.294118" stop-color="#F5F6F8"/><stop offset="0.352941" stop-color="#F7F7F9"/><stop offset="0.411765" stop-color="#F8F8FA"/><stop offset="0.470588" stop-color="#F9F9FB"/><stop offset="0.529412" stop-color="#FAFAFC"/><stop offset="0.588235" stop-color="#FBFBFC"/><stop offset="0.647059" stop-color="#FCFCFD"/><stop offset="0.705882" stop-color="#FDFDFD"/><stop offset="0.764706" stop-color="#FDFDFE"/><stop offset="0.823529" stop-color="#FEFEFE"/><stop offset="0.882353" stop-color="#FEFEFE"/><stop offset="0.941176" stop-color="#FEFEFE"/><stop offset="1" stop-color="#FFFFFF"/></linearGradient><linearGradient x1="53" y1="232" x2="573" y2="752" gradientUnits="userSpaceOnUse" spreadMethod="reflect" id="fill20"><stop offset="0" stop-color="#EDEEF3"/><stop offset="0.0588235" stop-color="#EEEFF4"/><stop offset="0.117647" stop-color="#F0F1F5"/><stop offset="0.176471" stop-color="#F2F3F6"/><stop offset="0.235294" stop-color="#F4F4F7"/><stop offset="0.294118" stop-color="#F5F6F8"/><stop offset="0.352941" stop-color="#F7F7F9"/><stop offset="0.411765" stop-color="#F8F8FA"/><stop offset="0.470588" stop-color="#F9F9FB"/><stop offset="0.529412" stop-color="#FAFAFC"/><stop offset="0.588235" stop-color="#FBFBFC"/><stop offset="0.647059" stop-color="#FCFCFD"/><stop offset="0.705882" stop-color="#FDFDFD"/><stop offset="0.764706" stop-color="#FDFDFE"/><stop offset="0.823529" stop-color="#FEFEFE"/><stop offset="0.882353" stop-color="#FEFEFE"/><stop offset="0.941176" stop-color="#FEFEFE"/><stop offset="1" stop-color="#FFFFFF"/></linearGradient><clipPath id="clip21"><rect x="237" y="10" width="93" height="71"/></clipPath><clipPath id="clip22"><rect x="237" y="10" width="93" height="71"/></clipPath><clipPath id="clip23"><rect x="237" y="10" width="93" height="71"/></clipPath></defs><g clip-path="url(#clip13)"><rect x="0" y="0" width="1280" height="720" fill="#FFFFFF"/><g filter="url(#fx0)" transform="translate(625 244)"><g><path d="M14.5719 88.5733C14.5719 47.7035 47.7034 14.5719 88.5733 14.5719L536.57 14.5719C577.44 14.5719 610.572 47.7035 610.572 88.5733L610.572 384.57C610.572 425.44 577.44 458.572 536.57 458.572L88.5733 458.572C47.7034 458.572 14.5719 425.44 14.5719 384.57Z" fill="#BFBFBF" fill-rule="evenodd"/></g></g><path d="M649 342.001C649 301.132 682.132 268 723.001 268L1171 268C1211.87 268 1245 301.132 1245 342.001L1245 637.999C1245 678.868 1211.87 712 1171 712L723.001 712C682.132 712 649 678.868 649 637.999Z" fill="#BFBFBF" fill-rule="evenodd"/><g filter="url(#fx1)" transform="translate(642 261)"><g><path d="M21.1422 38.7914C21.1422 29.044 29.044 21.1422 38.7914 21.1422L599.493 21.1422C609.24 21.1422 617.142 29.044 617.142 38.7914L617.142 447.493C617.142 457.24 609.24 465.142 599.493 465.142L38.7914 465.142C29.044 465.142 21.1422 457.24 21.1422 447.493Z" fill="#FF0000" fill-rule="evenodd"/></g></g><path d="M649 285.649C649 275.902 656.902 268 666.649 268L1227.35 268C1237.1 268 1245 275.902 1245 285.649L1245 694.351C1245 704.098 1237.1 712 1227.35 712L666.649 712C656.902 712 649 704.098 649 694.351Z" fill="url(#fill14)" fill-rule="evenodd"/><g filter="url(#fx2)" transform="translate(-9 78)"><g><path d="M14.5719 39.4057C14.5719 25.6904 25.6904 14.5719 39.4057 14.5719L276.738 14.5719C290.453 14.5719 301.572 25.6904 301.572 39.4057L301.572 138.738C301.572 152.453 290.453 163.572 276.738 163.572L39.4057 163.572C25.6904 163.572 14.5719 152.453 14.5719 138.738Z" fill="#BFBFBF" fill-rule="evenodd"/></g></g><path d="M15 126.834C15 113.118 26.1185 102 39.8338 102L277.166 102C290.882 102 302 113.118 302 126.834L302 226.166C302 239.882 290.882 251 277.166 251L39.8338 251C26.1185 251 15 239.882 15 226.166Z" fill="#BFBFBF" fill-rule="evenodd"/><g filter="url(#fx3)" transform="translate(8 95)"><g><path d="M21.1421 45.9759C21.1421 32.2606 32.2606 21.1421 45.9759 21.1421L283.308 21.1421C297.024 21.1421 308.142 32.2606 308.142 45.9759L308.142 145.308C308.142 159.024 297.024 170.142 283.308 170.142L45.9759 170.142C32.2606 170.142 21.1421 159.024 21.1421 145.308Z" fill="#FF0000" fill-rule="evenodd"/></g></g><path d="M15 126.834C15 113.118 26.1185 102 39.8338 102L277.166 102C290.882 102 302 113.118 302 126.834L302 226.166C302 239.882 290.882 251 277.166 251L39.8338 251C26.1185 251 15 239.882 15 226.166Z" fill="url(#fill15)" fill-rule="evenodd"/><g filter="url(#fx4)" transform="translate(306 78)"><g><path d="M14.5719 39.4057C14.5719 25.6904 25.6904 14.5719 39.4057 14.5719L276.738 14.5719C290.453 14.5719 301.572 25.6904 301.572 39.4057L301.572 138.738C301.572 152.453 290.453 163.572 276.738 163.572L39.4057 163.572C25.6904 163.572 14.5719 152.453 14.5719 138.738Z" fill="#BFBFBF" fill-rule="evenodd"/></g></g><path d="M330 126.834C330 113.118 341.118 102 354.834 102L592.166 102C605.882 102 617 113.118 617 126.834L617 226.166C617 239.882 605.882 251 592.166 251L354.834 251C341.118 251 330 239.882 330 226.166Z" fill="#BFBFBF" fill-rule="evenodd"/><g filter="url(#fx5)" transform="translate(323 95)"><g><path d="M21.1422 45.9759C21.1422 32.2606 32.2606 21.1421 45.9759 21.1421L283.308 21.1421C297.024 21.1421 308.142 32.2606 308.142 45.9759L308.142 145.308C308.142 159.024 297.024 170.142 283.308 170.142L45.9759 170.142C32.2606 170.142 21.1422 159.024 21.1422 145.308Z" fill="#FF0000" fill-rule="evenodd"/></g></g><path d="M330 126.834C330 113.118 341.118 102 354.834 102L592.166 102C605.882 102 617 113.118 617 126.834L617 226.166C617 239.882 605.882 251 592.166 251L354.834 251C341.118 251 330 239.882 330 226.166Z" fill="url(#fill16)" fill-rule="evenodd"/><g filter="url(#fx6)" transform="translate(619 78)"><g><path d="M14.5719 39.4057C14.5719 25.6904 25.6904 14.5719 39.4057 14.5719L276.738 14.5719C290.453 14.5719 301.572 25.6904 301.572 39.4057L301.572 138.738C301.572 152.453 290.453 163.572 276.738 163.572L39.4057 163.572C25.6904 163.572 14.5719 152.453 14.5719 138.738Z" fill="#BFBFBF" fill-rule="evenodd"/></g></g><path d="M643 126.834C643 113.118 654.118 102 667.834 102L905.166 102C918.882 102 930 113.118 930 126.834L930 226.166C930 239.882 918.882 251 905.166 251L667.834 251C654.118 251 643 239.882 643 226.166Z" fill="#BFBFBF" fill-rule="evenodd"/><g filter="url(#fx7)" transform="translate(636 95)"><g><path d="M21.1422 45.9759C21.1422 32.2606 32.2606 21.1421 45.9759 21.1421L283.308 21.1421C297.024 21.1421 308.142 32.2606 308.142 45.9759L308.142 145.308C308.142 159.024 297.024 170.142 283.308 170.142L45.9759 170.142C32.2606 170.142 21.1422 159.024 21.1422 145.308Z" fill="#FF0000" fill-rule="evenodd"/></g></g><path d="M643 126.834C643 113.118 654.118 102 667.834 102L905.166 102C918.882 102 930 113.118 930 126.834L930 226.166C930 239.882 918.882 251 905.166 251L667.834 251C654.118 251 643 239.882 643 226.166Z" fill="url(#fill17)" fill-rule="evenodd"/><g filter="url(#fx8)" transform="translate(934 77)"><g><path d="M14.5719 39.4057C14.5719 25.6904 25.6904 14.5719 39.4057 14.5719L276.738 14.5719C290.453 14.5719 301.572 25.6904 301.572 39.4057L301.572 138.738C301.572 152.453 290.453 163.572 276.738 163.572L39.4057 163.572C25.6904 163.572 14.5719 152.453 14.5719 138.738Z" fill="#BFBFBF" fill-rule="evenodd"/></g></g><path d="M958 125.834C958 112.118 969.118 101 982.834 101L1220.17 101C1233.88 101 1245 112.118 1245 125.834L1245 225.166C1245 238.882 1233.88 250 1220.17 250L982.834 250C969.118 250 958 238.882 958 225.166Z" fill="#BFBFBF" fill-rule="evenodd"/><g filter="url(#fx9)" transform="translate(951 94)"><g><path d="M21.1422 45.9759C21.1422 32.2606 32.2606 21.1421 45.9759 21.1421L283.308 21.1421C297.024 21.1421 308.142 32.2606 308.142 45.9759L308.142 145.308C308.142 159.024 297.024 170.142 283.308 170.142L45.9759 170.142C32.2606 170.142 21.1422 159.024 21.1422 145.308Z" fill="#FF0000" fill-rule="evenodd"/></g></g><path d="M958 125.834C958 112.118 969.118 101 982.834 101L1220.17 101C1233.88 101 1245 112.118 1245 125.834L1245 225.166C1245 238.882 1233.88 250 1220.17 250L982.834 250C969.118 250 958 238.882 958 225.166Z" fill="url(#fill18)" fill-rule="evenodd"/><g filter="url(#fx10)" transform="translate(8 0)"><g><path d="M21.1421 33.9757C21.1421 26.8879 26.8878 21.1421 33.9755 21.1421L1264.31 21.1421C1271.4 21.1421 1277.14 26.8879 1277.14 33.9757L1277.14 85.3086C1277.14 92.3964 1271.4 98.1421 1264.31 98.1421L33.9755 98.1421C26.8878 98.1421 21.1421 92.3964 21.1421 85.3086Z" fill="#FF0000" fill-rule="evenodd"/></g></g><path d="M15 19.8336C15 12.7458 20.7457 7 27.8333 7L1258.17 7C1265.25 7 1271 12.7458 1271 19.8336L1271 71.1664C1271 78.2542 1265.25 84 1258.17 84L27.8333 84C20.7457 84 15 78.2542 15 71.1664Z" fill="url(#fill19)" fill-rule="evenodd"/><text font-family="Calibri,Calibri_MSFontService,sans-serif" font-weight="700" font-size="24" transform="translate(548.4 50)">SaaS Financial Performance Dashboard 2022</text><text font-family="Calibri,Calibri_MSFontService,sans-serif" font-weight="700" font-size="24" transform="translate(994.36 50)">-</text><text font-family="Calibri,Calibri_MSFontService,sans-serif" font-weight="700" font-size="24" transform="translate(1007.19 50)">2024</text><path d="M0 0 1.2 82.8" stroke="#4472C4" stroke-width="0.666667" stroke-miterlimit="8" fill="none" fill-rule="evenodd" transform="matrix(-1 0 0 1 1075.7 2.50005)"/><g filter="url(#fx11)" transform="translate(-9 246)"><g><path d="M14.5719 88.5733C14.5719 47.7035 47.7035 14.5719 88.5733 14.5719L536.57 14.5719C577.44 14.5719 610.572 47.7035 610.572 88.5733L610.572 384.57C610.572 425.44 577.44 458.572 536.57 458.572L88.5733 458.572C47.7035 458.572 14.5719 425.44 14.5719 384.57Z" fill="#BFBFBF" fill-rule="evenodd"/></g></g><path d="M15 344.001C15 303.132 48.1315 270 89.0014 270L536.999 270C577.868 270 611 303.132 611 344.001L611 639.999C611 680.868 577.868 714 536.999 714L89.0014 714C48.1315 714 15 680.868 15 639.999Z" fill="#BFBFBF" fill-rule="evenodd"/><g filter="url(#fx12)" transform="translate(8 263)"><g><path d="M21.1421 39.9901C21.1421 29.5807 29.5806 21.1422 39.99 21.1422L598.294 21.1422C608.704 21.1422 617.142 29.5807 617.142 39.9901L617.142 446.294C617.142 456.704 608.704 465.142 598.294 465.142L39.99 465.142C29.5806 465.142 21.1421 456.704 21.1421 446.294Z" fill="#FF0000" fill-rule="evenodd"/></g></g><path d="M15 288.848C15 278.439 23.4385 270 33.8479 270L592.152 270C602.561 270 611 278.439 611 288.848L611 695.152C611 705.562 602.561 714 592.152 714L33.8479 714C23.4385 714 15 705.562 15 695.152Z" fill="url(#fill20)" fill-rule="evenodd"/><g clip-path="url(#clip21)"><g clip-path="url(#clip22)"><g clip-path="url(#clip23)"><path d="M1.18987 69.8962C1.29186 69.9302 1.42784 69.9302 1.52983 69.9302 4.18153 69.3182 6.86723 68.8083 9.58693 68.4003 10.9128 68.1284 12.2726 67.8904 13.6325 67.6864 13.8365 67.6524 14.0744 67.6184 14.3464 67.5504 15.3323 67.3125 16.3182 67.1425 17.3041 66.8705 18.4599 66.5306 20.2957 66.1566 22.8794 65.7147 23.0154 65.6807 23.1174 65.6467 23.2194 65.5787 23.2194 65.5787 23.2194 65.6127 23.2194 65.6467L23.2194 65.6807C23.2194 65.7147 23.2194 65.7147 23.2534 65.7147L36.8179 64.7288C44.365 64.1848 51.8782 64.2868 59.4254 65.0007 63.1989 65.2727 66.3946 65.5107 69.0123 65.7486 70.0322 65.8506 71.188 66.1566 72.1059 66.3266 74.0437 66.6665 76.0495 67.2105 77.8853 67.5164 79.5851 67.8224 81.3529 68.1964 82.9167 68.4683 84.2766 68.7063 85.6364 68.9103 86.9963 69.1143 87.6082 69.2503 88.1861 69.3862 88.7981 69.4542 89.58 69.5562 90.3619 69.8282 91.1778 69.9302 91.5518 69.9642 91.5518 69.9302 91.2118 69.7942L87.3702 68.2304C85.8064 67.6524 84.2426 67.0745 82.6787 66.4626 81.0469 65.8506 79.2451 65.2387 77.5453 64.5928 75.9475 64.0148 73.8397 63.3349 71.154 62.621 71.0861 62.621 71.0521 62.553 71.0521 62.519L71.0861 60.3093C71.0521 53.544 71.0181 46.8128 71.0181 40.0475 71.0181 35.0841 70.9501 30.1206 70.9841 25.1572 70.9841 24.6472 71.0181 24.1373 71.0521 23.6614 71.0521 23.5594 70.9841 23.4914 70.9161 23.4914 70.6441 23.4574 70.4741 23.1854 70.3041 23.0834 68.8763 22.0635 67.4145 21.0436 66.0206 19.9218 65.3747 19.4118 64.6608 19.0039 64.0148 18.5279 63.9129 18.4599 63.8789 18.324 63.9129 18.222L64.0148 17.984C64.0488 17.882 64.1168 17.848 64.2188 17.916 66.3266 19.3778 68.3324 20.9077 70.3381 22.5395 70.4741 22.6415 70.5421 22.6075 70.5761 22.4375L70.6781 21.8936C70.7121 21.7576 70.6441 21.6216 70.5421 21.5536L63.5049 16.1142C63.4709 16.0802 63.4369 16.0462 63.4369 16.0122L63.4029 15.9442C63.3689 15.9102 63.3349 15.8762 63.3009 15.9102 62.315 16.3862 61.3291 16.7941 60.2753 17.0661L59.7653 17.2361 59.7313 15.6043C59.8673 15.2303 59.8673 14.9583 59.6973 14.7883 59.6293 14.6864 59.5613 14.6184 59.4593 14.5504 53.952 10.2669 48.6486 5.67737 43.2092 1.29186 42.6992 0.883901 42.2233 0.441951 41.7473-1.78149e-14 41.7473-1.78149e-14 41.7473-1.78149e-14 41.7473-1.78149e-14 41.7133-1.78149e-14 41.7133-1.78149e-14 41.6793 0.0339962 41.3394 0.71392 41.0674 1.52983 40.7954 2.14176 39.8435 4.14754 38.8577 6.15331 37.8718 8.12509 37.7698 8.29507 37.6678 8.66903 37.5658 9.24697 37.5658 9.31496 37.5658 9.34895 37.5998 9.41695 37.8038 9.75691 37.8718 10.1309 37.8718 10.5048 37.8718 10.6408 37.9398 10.6748 38.0417 10.6068L38.2117 10.5388C38.3477 10.5048 38.4157 10.4028 38.4497 10.2669 38.4837 10.0289 38.5177 9.89289 38.5517 9.8249 39.5036 8.32907 40.4215 6.83324 41.3054 5.30341 41.4754 4.99744 41.7133 4.69148 41.9513 4.4535 42.0873 4.31752 42.2573 4.31752 42.4273 4.41951 47.5947 8.49905 52.6941 12.5106 57.7255 16.4542 58.4395 17.0321 59.1874 17.508 59.9693 17.882 60.0373 17.916 60.0373 17.95 60.0373 18.018L60.0373 60.0033C60.0373 60.0033 60.0373 60.0033 60.0373 60.0033 60.0373 60.0373 60.0033 60.0713 59.9693 60.0713L57.2496 59.4933C57.2156 59.4933 57.1816 59.4593 57.1816 59.3914L57.1816 53.646C57.1816 53.612 57.1476 53.544 57.0796 53.544L55.0738 53.238C54.9379 53.204 54.9039 53.272 55.0058 53.374 55.1758 53.612 55.2778 53.918 55.2778 54.2919 55.2778 55.7198 55.2438 57.1816 55.2098 58.6094 55.2098 58.7114 55.2438 58.8474 55.2778 59.0174 55.3118 59.1194 55.2778 59.1534 55.1758 59.1194L54.8699 59.0854C54.7679 59.0854 54.7339 59.0174 54.7339 58.9494L54.6659 53.272C54.6659 53.204 54.6319 53.1701 54.5979 53.1701L52.6941 52.6941C52.6261 52.6941 52.5921 52.6941 52.5921 52.7621L52.5921 58.6094C52.5921 58.7114 52.5581 58.7454 52.4561 58.7114L52.1842 58.6094C52.1162 58.5755 52.0822 58.5415 52.0822 58.4735L52.0822 52.6261C52.0822 52.5921 52.0482 52.5581 52.0142 52.5241L50.3144 52.1842C50.3144 52.1842 50.3144 52.1842 50.2804 52.1842 50.2124 52.1842 50.1784 52.2182 50.1784 52.2862L50.1444 58.2015C50.1444 58.2695 50.1104 58.3035 50.0424 58.3035L49.9064 58.3035C49.8384 58.3035 49.8044 58.2355 49.8044 58.2015L49.8044 52.1842C49.8044 52.1502 49.7704 52.1162 49.7364 52.1162L48.1726 51.7082C48.1386 51.7082 48.1046 51.7082 48.1046 51.7422L48.1386 57.9975C48.1386 57.9975 48.1386 57.9975 48.1386 57.9975 48.1386 58.0655 48.0706 58.0995 48.0026 58.0995L45.9629 57.7935C45.7929 57.7595 45.6569 57.7595 45.4869 57.7935L42.5972 58.1675C42.5972 58.1675 42.5972 58.1675 42.5632 58.1675 42.4952 58.1675 42.4273 58.0995 42.4273 58.0315 42.5292 52.0822 42.3933 46.2008 42.4952 40.2515 42.4952 39.1976 42.5292 38.1437 42.4952 37.0559 42.4613 32.7383 42.4273 28.4208 42.4613 24.1033 42.4613 22.4375 42.4273 20.2957 42.4613 18.3579 42.4952 16.2502 42.4952 14.3124 42.4613 12.0347 42.4613 10.7428 42.4952 9.41695 42.4613 8.15909 42.4273 6.96922 42.4613 5.88134 42.2573 4.69148 42.2573 4.69148 42.2573 4.65748 42.2233 4.65748 42.1893 4.62348 42.1553 4.65748 42.1553 4.69148 41.7473 5.30341 41.3734 5.94933 40.9994 6.62926 40.6934 7.24119 40.2855 7.78513 39.9455 8.39706 39.7756 8.70303 39.1976 9.58693 39.1296 10.0289 39.0616 10.5728 39.0616 11.4227 39.0956 12.6126 39.1296 13.8704 39.1636 14.7204 39.1636 15.1963 39.1976 20.0238 39.2316 24.8172 39.2656 29.6107L39.3336 38.0078 39.2996 44.2291 39.2656 51.1303C39.2996 52.5581 39.2656 54.02 39.1976 55.4478 39.1976 55.6178 39.0956 55.7198 39.0956 55.8897 39.5376 56.0257 40.0135 56.0937 40.4895 56.0597 40.5575 56.0597 40.5575 56.0937 40.5575 56.1277L40.5235 58.0995C40.5235 58.3035 40.4215 58.4395 40.2175 58.4395L37.8378 58.7454C37.8378 58.7454 37.8378 58.7454 37.8378 58.7454 37.8038 58.7454 37.7698 58.7114 37.7698 58.6434L37.8378 26.3131C37.8378 26.2791 37.8378 26.2451 37.8378 26.2451L37.9058 26.0751C37.9398 26.0071 37.9058 25.9391 37.8378 25.9051L32.6703 22.9474C32.6363 22.9134 32.6024 22.9134 32.5344 22.9474 31.0385 24.2733 29.6787 25.8031 28.3528 27.061 26.925 28.4548 25.1232 30.2566 23.3894 31.7524 23.3554 31.7864 23.3214 31.8204 23.3214 31.8884L23.2534 35.764C23.2534 35.968 23.3214 36.002 23.4574 35.832 24.1713 34.9821 24.9532 34.1662 26.381 33.0103 26.619 32.8063 26.823 32.6363 26.959 32.4324 27.231 32.1264 27.5369 31.9904 27.7749 31.7524 28.8968 30.7666 30.0186 29.7807 31.2085 28.7268 31.2765 28.6588 31.3785 28.6588 31.4125 28.7608 31.7185 29.3047 31.1065 29.7807 30.7326 30.1206 28.8288 31.8204 26.925 33.4863 24.9872 35.1521 24.4773 35.594 23.9673 36.07 23.4914 36.5799 23.0154 37.0559 22.6075 37.3278 22.0295 37.6678 21.7916 37.8038 21.7236 37.9738 21.7916 38.2457L21.8256 38.3477C21.8936 38.5857 22.0295 38.6537 22.2335 38.5177 24.1373 37.2258 25.7691 35.492 27.6049 34.0982 27.8769 33.8942 28.1149 33.6222 28.3188 33.4523 29.5767 32.6703 30.5966 31.8204 31.6165 30.9365 31.7185 30.8685 31.7864 30.8006 31.8884 30.7666 31.9224 30.7666 31.9564 30.7326 31.9564 30.7666 32.0244 30.7666 32.0584 30.8346 32.0244 30.9025 31.7864 31.7864 31.7864 32.5684 31.7864 33.4523 31.7524 35.39 31.7524 37.2938 31.7864 39.2316 31.8204 40.2855 31.7185 41.5434 31.7524 42.6992 31.7864 43.3452 31.6845 44.0591 31.7185 44.739 31.8544 49.0565 31.7185 53.408 31.6845 57.7255L31.5825 60.0713C31.5825 60.1053 31.5485 60.1393 31.5145 60.1393 31.4465 60.1393 31.3785 60.1733 31.3105 60.1733 31.3445 59.3914 31.3445 57.7935 31.3445 57.7255 31.3445 57.3856 31.3105 57.0116 31.3105 56.6717 31.3105 52.4561 31.2765 48.2746 31.2765 44.0591 31.2765 40.1155 31.3105 36.172 31.3445 32.1944 31.3445 32.1944 31.3445 32.1604 31.3105 32.1604 31.2765 32.1264 31.2425 32.1264 31.2425 32.1604 30.5626 32.8063 29.8827 33.4183 29.1347 34.0642 28.7608 34.3702 28.8288 34.7781 28.8628 35.2541 28.8968 36.2739 28.7948 37.7018 28.8288 38.9596 28.8628 39.4356 28.8628 39.8775 28.8628 40.2175 28.8288 46.1668 28.8288 54.7679 28.8628 60.8192 28.7268 60.8532 28.5908 60.8872 28.4548 60.9212 28.4548 54.3939 28.5228 45.1809 28.4888 38.6877 28.4888 37.4298 28.4888 36.172 28.5568 34.8801 28.5568 34.6421 28.4548 34.5741 28.2508 34.7101 27.6049 35.1181 26.993 35.662 26.381 36.3079 26.3131 36.4099 26.2791 36.4779 26.2791 36.5799 26.3131 36.6819 26.3131 36.7499 26.3131 36.7499 26.2791 42.2233 26.2451 47.7307 26.2791 53.204L26.2791 61.4311C26.1771 61.4651 26.1091 61.4651 26.0071 61.4991L25.9731 50.9263 26.0411 36.6479C26.0411 36.6479 26.0411 36.6139 26.0411 36.6139 26.0071 36.5799 25.9731 36.5799 25.9391 36.6139L22.8114 39.1636C22.7435 39.2316 22.7095 39.2996 22.7095 39.4016L22.7435 41.9853 22.7435 46.6768 22.7775 62.281C22.7775 62.281 22.7775 62.281 22.7775 62.281 22.7775 61.6351 22.7435 59.8333 22.7095 59.8333L22.6755 59.8333C22.6075 59.7993 22.5735 61.9751 22.5395 62.349 22.5395 62.349 22.5395 62.349 22.5395 62.349 22.4715 61.0232 22.4375 57.2156 22.4715 55.8897 22.5395 53.68 22.4715 51.5042 22.5055 49.2945 22.5055 48.3426 22.5055 47.3907 22.5055 46.4388L22.5735 41.8833 22.5735 39.8435C22.5735 39.6396 22.4715 39.6056 22.3015 39.6396L22.2335 39.6736C22.1315 39.7076 22.0635 39.8095 22.0635 39.9455 22.0635 46.3368 22.0295 55.4478 21.9955 61.8391 21.9955 61.9411 21.9955 62.1451 22.0295 62.485 21.7576 62.553 21.4516 62.621 21.1796 62.723 19.9218 63.0969 18.7319 63.3689 17.508 63.7769 13.3605 65.1707 9.31496 66.6665 5.26941 68.2984L1.08788 69.9642C1.12187 69.8622 1.12187 69.8622 1.18987 69.8962ZM69.8622 26.857 69.6582 27.2649C69.6242 27.2989 69.6242 27.3669 69.6582 27.4009 69.7942 27.8089 69.7262 28.1828 69.7262 28.5568 69.7262 37.8378 69.7262 47.1187 69.7262 56.3997 69.7262 57.7595 69.6922 60.1053 69.7262 61.9751 69.7262 62.1111 69.6582 62.179 69.5222 62.1451L68.0604 61.7711C68.0264 61.7711 67.9924 61.7371 67.9924 61.7031 67.9584 55.4138 67.8904 49.1245 67.9244 42.8352 67.9244 41.8153 67.8904 40.6934 67.8904 39.7416 67.9244 34.2682 67.9244 29.9167 67.8564 26.653 67.8564 26.3471 67.7884 25.9391 67.6184 25.3952 67.6184 25.3272 67.5844 25.2932 67.5164 25.2932 67.3125 25.2252 67.1085 25.2592 66.9385 25.3952 66.9385 25.3952 66.9385 25.3952 66.9045 25.4292 66.8705 25.4971 66.8705 25.5991 66.9385 25.6331 67.0405 25.7011 67.0745 25.8031 67.0745 25.9731 67.0065 37.0559 66.9725 48.1386 67.0065 59.2214 67.0065 59.9353 67.0065 60.6832 67.0065 61.4311 67.0065 61.4311 67.0065 61.4311 67.0065 61.4311 67.0065 61.4651 66.9725 61.4991 66.9045 61.4991L65.4427 61.1592C65.3407 61.1252 65.2727 61.0572 65.2727 60.9552 65.2727 56.8756 65.2727 52.8301 65.2387 48.8525 65.2387 46.2008 65.2387 43.1752 65.3067 39.7756 65.3067 39.7076 65.3067 39.5716 65.3067 39.3336 65.3067 34.4042 65.3067 29.4747 65.2727 24.5113 65.2727 24.2733 65.2727 24.0693 65.2387 23.8313 65.2387 23.7973 65.2387 23.7633 65.2727 23.7293 65.3407 23.6274 65.4427 23.6274 65.5447 23.6614L69.6922 26.381C69.9302 26.483 69.9642 26.653 69.8622 26.857ZM63.9468 19.1739C63.9468 19.1399 63.9468 19.1399 63.9808 19.1059 64.0488 19.0379 64.0828 19.0379 64.1848 19.1059 64.6268 19.4798 65.0007 19.8538 65.5107 20.1597 66.7005 20.8737 67.7544 21.8256 68.8763 22.6075 69.4202 22.9814 69.8962 23.5254 70.5081 23.8993 70.5421 23.9333 70.5761 23.9673 70.5761 24.0353L70.5421 25.8031C70.5421 25.8031 70.5421 25.8371 70.5421 25.8371 70.5081 25.9051 70.4401 25.9391 70.3721 25.9051 70.1682 25.8371 69.9642 25.7011 69.7602 25.5991 68.6723 24.8852 67.5504 24.2053 66.4626 23.4914 66.1906 23.3214 65.9526 23.0834 65.7147 22.8454 65.6807 22.8114 65.6127 22.8114 65.5787 22.8454L65.4087 23.0154C65.3747 23.0494 65.3067 23.0834 65.2727 23.0834 64.8987 23.0494 64.5248 23.1174 64.2188 23.2874 64.2188 23.2874 64.1848 23.2874 64.1848 23.2874 64.1168 23.2874 64.0488 23.2534 64.0488 23.1854 63.8109 21.8596 63.9129 20.4657 63.9468 19.1739ZM41.0674 28.2508 41.0674 11.6947 41.1014 9.28096C41.1014 9.28096 41.1014 9.28096 41.1014 9.28096L41.1354 9.28096C41.1694 9.28096 41.1694 9.28096 41.1694 9.31496L41.2034 11.5927 41.2374 28.7948C41.2714 29.0667 41.2714 29.3047 41.2714 29.5767 41.2714 33.6562 41.2714 37.7358 41.2714 41.8153 41.2714 41.9173 41.2714 41.9853 41.3054 42.0533 41.3054 42.0873 41.3394 42.1213 41.3394 42.1893 41.3054 44.637 41.3054 47.0847 41.3054 49.4985 41.3054 51.3343 41.2714 53.1361 41.2034 54.9719 41.2034 55.1758 41.1694 55.3798 41.1014 55.5838 41.0674 55.6858 41.0674 55.6858 41.0674 55.5838L41.0674 28.2508ZM35.2201 31.6505C35.2201 30.6646 35.2201 29.6787 35.2541 28.6928 35.2541 28.5228 35.2881 28.3528 35.356 28.2168 35.39 28.1149 35.424 28.1149 35.458 28.2168 35.526 28.4888 35.594 28.7608 35.594 29.1007 35.594 33.0103 35.594 36.9199 35.56 40.8294 35.56 43.6851 35.56 46.5408 35.594 49.4305 35.594 50.9943 35.56 52.8641 35.56 54.5639 35.594 56.0257 35.594 57.5216 35.594 58.9834 35.594 58.9834 35.594 59.0174 35.594 59.0174 35.56 59.0514 35.526 59.0854 35.458 59.0514L35.424 59.0174C35.322 58.9834 35.2541 58.8814 35.2541 58.7454 35.1861 49.7024 35.1861 40.6255 35.2201 31.6505ZM31.6845 63.5389C33.3503 63.2329 35.0501 62.927 36.7499 62.655 39.1976 62.213 41.7473 62.0091 44.2291 61.7371 44.977 61.6691 45.7249 61.5331 46.4728 61.3971 46.7448 61.3631 47.4247 61.5331 47.7307 61.5671 49.6684 61.8391 51.5382 62.0431 53.51 62.383 56.3997 62.893 59.3574 63.3009 62.179 63.9129 63.3349 64.1508 64.5248 64.3208 65.6807 64.6948 66.4966 64.9327 67.2785 65.0347 68.0604 65.3407 68.1624 65.3747 68.1624 65.4087 68.0604 65.3747 65.3407 65.1027 62.587 64.7968 59.8333 64.5248 57.1476 64.2528 53.986 64.0488 50.3484 63.9129 45.7929 63.7769 41.2374 63.8449 36.6479 64.1848 32.6363 64.4568 29.6787 64.7288 27.8089 64.9667 26.3131 65.1707 24.7832 65.3407 23.2874 65.5107 23.2874 65.5107 23.2874 65.5107 23.2874 65.5107 26.0411 64.6948 28.8288 64.0488 31.6845 63.5389ZM24.5113 38.1777C24.5113 38.0757 24.5453 37.9738 24.6132 37.9058L24.7152 37.7698C24.7152 37.7698 24.7492 37.7358 24.7492 37.7358 24.7832 37.7358 24.8172 37.7698 24.8172 37.8038L24.7832 50.5523 24.7832 61.6691C24.6812 61.7031 24.6132 61.7031 24.5113 61.7371L24.5453 50.6543 24.5113 38.1777Z" stroke="#000000" stroke-width="0.339962" fill="#28D3C7" transform="matrix(1.00279 0 0 1 237.034 10.059)"/><path d="M43.1752 6.62926 43.1072 6.62926C43.0732 6.62926 43.0732 6.62926 43.0732 6.66325 43.0392 7.92111 42.9712 9.21297 43.0052 10.4708 43.0392 17.1341 43.0732 23.7633 43.1412 30.4266 43.1412 31.3445 43.1072 32.6703 43.1752 33.8262 43.2092 34.2002 43.0732 34.5401 43.1072 34.9141 43.1412 35.526 43.1752 36.036 43.1752 36.4099 43.1752 38.1777 43.1412 41.0334 43.1072 44.977 43.1072 46.1328 43.2092 47.4927 43.1752 48.7845 43.1412 51.3683 43.1412 53.1701 43.1072 55.4138 43.1072 55.4818 43.1412 55.5158 43.1752 55.5498L43.2432 55.5838C43.3112 55.6178 43.3452 55.5838 43.3452 55.5158 43.3112 52.7621 43.3791 50.0424 43.3452 47.3227 43.3112 43.3452 43.4471 39.3336 43.4131 35.356 43.3791 31.2765 43.3791 27.197 43.3791 23.1174 43.3791 20.3297 43.3791 17.644 43.3112 14.7204 43.2772 13.3605 43.2772 11.9667 43.2772 10.6068 43.2772 9.31496 43.2772 8.0571 43.2772 6.76524 43.2772 6.69725 43.2432 6.66325 43.1752 6.62926Z" stroke="#000000" stroke-width="0.339962" fill="#28D3C7" transform="matrix(1.00279 0 0 1 237.034 10.059)"/><path d="M39.0616 29.3387C39.0616 23.8313 39.0276 18.324 38.9936 12.7826 38.9936 12.0347 38.8917 11.3547 38.7557 10.6408 38.7557 10.6068 38.7217 10.5728 38.7217 10.6408 38.6537 10.8108 38.6197 10.9468 38.6197 11.1168 38.5857 16.8961 38.6197 22.6415 38.7557 28.4208 38.8917 34.6761 38.6877 44.501 38.7217 55.9237 38.7217 55.9917 38.7557 56.0257 38.8237 56.0257 38.9936 56.0597 39.1296 56.0257 39.1636 55.9237L39.1976 50.4844C39.1976 48.5466 39.1636 46.6088 39.1976 44.637 39.1976 44.331 39.1976 43.9911 39.1976 43.6851 39.0956 41.6113 39.1636 39.4696 39.2316 37.3958 39.2656 36.6479 39.1636 35.832 39.1636 35.1521 39.0956 33.2143 39.0956 31.2765 39.0616 29.3387Z" stroke="#000000" stroke-width="0.339962" fill="#28D3C7" transform="matrix(1.00279 0 0 1 237.034 10.059)"/><path d="M49.8384 14.4824C49.8384 14.4484 49.8384 14.4484 49.8044 14.4144 49.3285 13.8365 48.6486 13.4285 48.1046 12.9186 48.1046 12.9186 48.0706 12.9186 48.0706 12.9186 48.0366 12.9186 48.0366 12.9526 48.0366 12.9526L48.0366 15.6043C48.0366 15.6383 48.0366 15.6722 48.0706 15.6722L49.7364 16.7261C49.7364 16.7261 49.7364 16.7261 49.7364 16.7261 49.7364 16.7261 49.7704 16.7261 49.7704 16.6921L49.7704 14.5844C49.7704 14.5504 49.7704 14.5164 49.8044 14.5164 49.8384 14.5164 49.8384 14.4824 49.8384 14.4824Z" stroke="#000000" stroke-width="0.339962" fill="#28D3C7" transform="matrix(1.00279 0 0 1 237.034 10.059)"/><path d="M50.3824 17.3381 51.9802 18.3919C51.9802 18.3919 51.9802 18.3919 52.0142 18.3919 52.0482 18.3919 52.0482 18.3579 52.0822 18.3579L52.1842 16.4542C52.1842 16.3182 52.1162 16.1822 52.0142 16.0802L50.1444 14.5504C50.1104 14.5504 50.1104 14.5164 50.0764 14.5504 50.0424 14.5504 50.0424 14.6184 50.0424 14.6524 50.0424 14.6864 50.0764 14.6864 50.0764 14.6864 50.0764 14.6864 50.0764 14.6864 50.0764 14.7204 50.0764 14.7544 50.0764 14.7883 50.0764 14.8223 50.0764 14.8563 50.0764 14.9243 50.0764 14.9583 50.3144 15.6043 50.2804 16.4542 50.2804 17.1681 50.2804 17.2361 50.3144 17.3041 50.3824 17.3381Z" stroke="#000000" stroke-width="0.339962" fill="#28D3C7" transform="matrix(1.00279 0 0 1 237.034 10.059)"/><path d="M48.0366 16.3182C48.0366 16.3522 48.0706 16.3862 48.1046 16.4542 48.4786 16.9301 48.8865 17.3381 49.3285 17.678 50.4844 18.5619 51.6062 19.4798 52.8301 20.2957 53.918 21.0436 55.5158 21.8936 56.8076 22.8454 56.8076 22.8454 56.8076 22.8454 56.8416 22.8454L56.8756 22.8114C56.8756 22.7775 56.8756 22.7775 56.8756 22.7775 56.5697 22.5055 55.8558 22.0295 54.7339 21.2816 52.8641 20.0238 50.6883 18.4259 48.2066 16.4202 48.1726 16.3862 48.1726 16.3862 48.1386 16.3862 48.1386 16.3862 48.1386 16.3862 48.1046 16.3862 48.0706 16.3182 48.0706 16.3182 48.0366 16.3182 48.0366 16.2842 48.0366 16.2842 48.0366 16.3182Z" stroke="#000000" stroke-width="0.339962" fill="#28D3C7" transform="matrix(1.00279 0 0 1 237.034 10.059)"/><path d="M54.1899 19.9218C54.2579 19.9218 54.2919 19.8878 54.2919 19.8198 54.3259 19.3778 54.3259 18.9359 54.3259 18.5279 54.3259 18.052 54.3599 17.814 53.952 17.542 53.51 17.2361 53.0341 16.9301 52.5581 16.6241 52.5581 16.6241 52.5581 16.6241 52.5241 16.6241 52.4901 16.6241 52.4901 16.6581 52.4901 16.6581L52.4561 18.5959C52.4561 18.6299 52.4561 18.6639 52.4901 18.6979 52.8981 19.0039 53.714 19.7858 54.1899 19.9218 54.1899 19.9218 54.1899 19.9218 54.1899 19.9218Z" stroke="#000000" stroke-width="0.339962" fill="#28D3C7" transform="matrix(1.00279 0 0 1 237.034 10.059)"/><path d="M49.8724 19.3098C49.8724 19.2079 49.8044 19.1059 49.7364 19.0379L48.2746 17.95C48.1726 17.882 48.1046 17.916 48.1046 18.018 48.0026 18.7319 48.0026 19.4458 48.0706 20.1597 48.0706 20.2277 48.1046 20.2617 48.1386 20.2957L49.7704 21.4176C49.7704 21.4176 49.8044 21.4176 49.8044 21.4176 49.8384 21.4176 49.8724 21.3836 49.8724 21.3496L49.8724 19.3098Z" stroke="#000000" stroke-width="0.339962" fill="#28D3C7" transform="matrix(1.00279 0 0 1 237.034 10.059)"/><path d="M56.3317 21.4516C56.3997 21.4516 56.4337 21.4176 56.4337 21.3496L56.5357 19.4798C56.5357 19.4458 56.5357 19.4118 56.5017 19.3778L54.9039 18.222C54.9039 18.222 54.8699 18.188 54.8359 18.188 54.7679 18.188 54.7339 18.222 54.7339 18.29L54.6659 20.1257C54.6659 20.1597 54.6659 20.1937 54.6999 20.1937L56.2297 21.3496C56.2977 21.4516 56.2977 21.4516 56.3317 21.4516Z" stroke="#000000" stroke-width="0.339962" fill="#28D3C7" transform="matrix(1.00279 0 0 1 237.034 10.059)"/><path d="M50.4164 21.7916 51.9122 22.7435C52.0142 22.8114 52.0822 22.7775 52.0822 22.6415L52.1502 20.7717C52.1502 20.7037 52.1162 20.6697 52.0822 20.6357L50.5184 19.5818C50.5184 19.5818 50.4844 19.5818 50.4844 19.5818 50.4504 19.5818 50.3824 19.6158 50.3824 19.6838 50.3484 20.3297 50.2124 21.0436 50.3144 21.6556 50.3484 21.6896 50.3824 21.7236 50.4164 21.7916Z" stroke="#000000" stroke-width="0.339962" fill="#28D3C7" transform="matrix(1.00279 0 0 1 237.034 10.059)"/><path d="M57.2836 19.9558C57.2836 19.8878 57.2496 19.8878 57.1816 19.8878 57.1136 19.9218 57.0796 19.9898 57.0796 20.0918 57.0456 21.0436 57.0796 21.9275 57.1476 22.8114 57.1816 23.3554 57.2496 23.3554 57.3176 22.8114 57.3856 21.9615 57.4876 20.8737 57.2836 19.9558Z" stroke="#000000" stroke-width="0.339962" fill="#28D3C7" transform="matrix(1.00279 0 0 1 237.034 10.059)"/><path d="M52.5921 23.1514 54.088 24.2393C54.2239 24.3413 54.2919 24.3073 54.2919 24.1373L54.2919 22.3015C54.2919 22.1995 54.2239 22.0975 54.1219 22.0295L52.5581 21.0436C52.5581 21.0436 52.5241 21.0436 52.4901 21.0436 52.4561 21.0436 52.3881 21.0776 52.4221 21.1456L52.5241 22.3355 52.5921 23.1514Z" stroke="#000000" stroke-width="0.339962" fill="#28D3C7" transform="matrix(1.00279 0 0 1 237.034 10.059)"/><path d="M56.1277 25.5651C56.2637 25.6671 56.3317 25.6331 56.3657 25.4632L56.4337 23.5934C56.4337 23.5254 56.3997 23.4234 56.3317 23.3894L55.0738 22.5735C55.0398 22.5395 54.9719 22.5395 54.9379 22.5735 54.8699 22.6415 54.8019 22.7095 54.8019 22.8454 54.7339 23.3554 54.6999 23.8653 54.7339 24.3753 54.7339 24.4433 54.7679 24.4773 54.8019 24.5113L56.1277 25.5651Z" stroke="#000000" stroke-width="0.339962" fill="#28D3C7" transform="matrix(1.00279 0 0 1 237.034 10.059)"/><path d="M48.2746 22.8114C48.2746 22.8114 48.2406 22.8114 48.2406 22.8114 48.2066 22.8114 48.1726 22.8454 48.1726 22.8794L48.1726 25.3272C48.1726 25.3612 48.1726 25.3952 48.2066 25.3952L49.7364 26.3131C49.7364 26.3131 49.7704 26.3131 49.7704 26.3131 49.8044 26.3131 49.8384 26.2791 49.8384 26.2451L49.9404 24.0013C49.9404 23.9673 49.9404 23.9673 49.9064 23.9333L48.2746 22.8114Z" stroke="#000000" stroke-width="0.339962" fill="#28D3C7" transform="matrix(1.00279 0 0 1 237.034 10.059)"/><path d="M57.0116 23.8993 57.1136 26.483C57.1136 26.483 57.1136 26.517 57.1136 26.517L57.2156 26.687C57.2156 26.721 57.2496 26.721 57.2836 26.721 57.3176 26.721 57.3516 26.687 57.3516 26.653L57.3516 24.2393C57.3516 24.2393 57.3516 24.2053 57.3516 24.2053L57.1816 23.8653C57.1816 23.8313 57.1476 23.8313 57.1136 23.8313 57.0456 23.8313 57.0116 23.8653 57.0116 23.8993Z" stroke="#000000" stroke-width="0.339962" fill="#28D3C7" transform="matrix(1.00279 0 0 1 237.034 10.059)"/><path d="M52.1502 25.4632C51.5722 24.9532 50.9603 24.5453 50.3144 24.2393 50.1784 24.2393 50.1444 24.3413 50.2124 24.4773 50.3484 24.8172 50.3144 25.3612 50.2804 25.7011L50.3144 26.381C50.3144 26.449 50.3484 26.483 50.3824 26.517 50.7223 26.857 51.0963 27.095 51.5382 27.231 51.7422 27.2989 51.8442 27.4349 52.0482 27.5369 52.1162 27.5709 52.1502 27.5709 52.1162 27.4689 52.1162 27.3329 52.0822 27.197 52.0142 27.095 51.9802 27.027 51.9802 26.993 52.0142 26.925 52.1502 26.551 52.2522 26.1431 52.2862 25.7351 52.2862 25.6331 52.2522 25.5311 52.1502 25.4632Z" stroke="#000000" stroke-width="0.339962" fill="#28D3C7" transform="matrix(1.00279 0 0 1 237.034 10.059)"/><path d="M52.4561 27.6729C52.4561 27.7409 52.4901 27.8089 52.5581 27.8429L54.3259 28.7948C54.3259 28.7948 54.3599 28.7948 54.3599 28.7948 54.3939 28.7948 54.4279 28.7608 54.4279 28.7268 54.4279 28.1828 54.3939 27.6389 54.3939 27.095 54.3939 26.483 53.1361 25.9731 52.6601 25.7351 52.6261 25.7351 52.6261 25.7351 52.5921 25.7351 52.5241 25.7351 52.4561 25.8031 52.4561 25.8711L52.4561 27.6729Z" stroke="#000000" stroke-width="0.339962" fill="#28D3C7" transform="matrix(1.00279 0 0 1 237.034 10.059)"/><path d="M48.0706 27.7749 49.7704 28.8968C49.7704 28.8968 49.8044 28.8968 49.8044 28.8968 49.8384 28.8968 49.8724 28.8628 49.8724 28.8288L49.8384 27.163C49.8384 27.129 49.8384 27.095 49.8044 27.095L48.1726 26.0751C48.1726 26.0751 48.1386 26.0751 48.1386 26.0751 48.1046 26.0751 48.0706 26.1091 48.0366 26.1431L48.0026 27.7069C48.0366 27.7069 48.0366 27.7409 48.0706 27.7749Z" stroke="#000000" stroke-width="0.339962" fill="#28D3C7" transform="matrix(1.00279 0 0 1 237.034 10.059)"/><path d="M56.6037 28.7948C56.5017 28.6248 56.4337 28.4548 56.4337 28.2508 56.4337 28.1149 56.3317 27.9789 56.2297 27.9449L54.9039 27.231C54.7679 27.163 54.6999 27.197 54.6999 27.3669L54.7339 28.9308C54.7339 28.9988 54.7679 29.0328 54.8019 29.0667 55.3458 29.4407 55.9237 29.7467 56.5357 29.9506 56.5357 29.9506 56.5697 29.9506 56.5697 29.9506 56.6037 29.9506 56.6377 29.8827 56.6037 29.8487 56.5017 29.5427 56.5017 29.2367 56.6037 28.9308 56.6377 28.8968 56.6377 28.8288 56.6037 28.7948Z" stroke="#000000" stroke-width="0.339962" fill="#28D3C7" transform="matrix(1.00279 0 0 1 237.034 10.059)"/><path d="M50.3144 29.1007 52.1162 30.0526C52.1162 30.0526 52.1162 30.0526 52.1502 30.0526 52.1842 30.0526 52.2182 30.0186 52.2182 29.9846L52.2182 28.3188C52.2182 28.2848 52.2182 28.2848 52.1842 28.2848L50.3484 27.197C50.3484 27.197 50.3144 27.197 50.3144 27.197 50.2804 27.197 50.2464 27.231 50.2804 27.2649L50.3144 29.0328C50.2804 29.0667 50.2804 29.1007 50.3144 29.1007Z" stroke="#000000" stroke-width="0.339962" fill="#28D3C7" transform="matrix(1.00279 0 0 1 237.034 10.059)"/><path d="M54.3599 29.6107 52.6601 28.6588C52.6601 28.6588 52.6261 28.6588 52.6261 28.6588 52.5581 28.6588 52.5241 28.6928 52.5241 28.7608L52.4561 30.1886C52.4561 30.2226 52.4901 30.2906 52.5241 30.2906L54.3599 31.1745C54.3599 31.1745 54.3939 31.1745 54.4279 31.1745 54.4959 31.1745 54.5299 31.1065 54.5299 31.0725L54.4619 29.7127C54.4279 29.6787 54.3939 29.6447 54.3599 29.6107Z" stroke="#000000" stroke-width="0.339962" fill="#28D3C7" transform="matrix(1.00279 0 0 1 237.034 10.059)"/><path d="M56.9436 28.8968C56.9096 30.2906 56.9096 31.4465 56.9096 32.3644 56.9096 32.5684 57.0116 32.7383 57.1816 32.8403 57.2156 32.8743 57.2496 32.8743 57.2496 32.8063 57.3176 31.1405 57.3516 29.9167 57.1816 28.8628 57.1816 28.8288 57.1476 28.7948 57.0796 28.7948L57.0456 28.7948C57.0116 28.7948 56.9776 28.8288 56.9436 28.8968Z" stroke="#000000" stroke-width="0.339962" fill="#28D3C7" transform="matrix(1.00279 0 0 1 237.034 10.059)"/><path d="M49.8384 32.8403C49.9064 32.8403 49.9404 32.8063 49.9404 32.7383L49.9404 31.0725C49.9404 30.9705 49.8724 30.9025 49.8044 30.8685 49.1925 30.6306 48.6826 30.2906 48.2406 29.8487 48.2066 29.8147 48.1726 29.8147 48.1726 29.8827 48.1046 30.5286 48.1046 31.1405 48.1046 31.7864 48.1046 32.4324 49.3285 32.6703 49.8384 32.8403 49.8384 32.8403 49.8384 32.8403 49.8384 32.8403Z" stroke="#000000" stroke-width="0.339962" fill="#28D3C7" transform="matrix(1.00279 0 0 1 237.034 10.059)"/><path d="M56.1957 30.5626 54.9719 29.8487C54.9379 29.8487 54.9379 29.8147 54.9039 29.8147 54.8019 29.8147 54.7339 29.8827 54.7339 29.9846L54.7339 31.2085C54.7339 31.2765 54.7679 31.3105 54.8019 31.3445 55.1078 31.5485 55.1758 31.5145 55.3458 31.8544 55.3798 31.8884 55.4138 31.9224 55.4478 31.9224L56.2977 32.2624C56.3317 32.2964 56.3657 32.2624 56.3657 32.2284L56.3657 30.9365C56.3997 30.7326 56.3317 30.6306 56.1957 30.5626Z" stroke="#000000" stroke-width="0.339962" fill="#28D3C7" transform="matrix(1.00279 0 0 1 237.034 10.059)"/><path d="M50.2464 33.0783 52.1162 33.8942C52.1162 33.8942 52.1502 33.8942 52.1502 33.8942 52.1842 33.8942 52.2182 33.8602 52.2182 33.8262L52.2182 32.0584C52.2182 32.0244 52.2182 31.9904 52.1842 31.9904L50.3484 31.1065C50.3484 31.1065 50.3144 31.1065 50.3144 31.1065 50.2804 31.1065 50.2464 31.1405 50.2464 31.1745L50.2124 33.0103C50.2124 33.0103 50.2464 33.0443 50.2464 33.0783Z" stroke="#000000" stroke-width="0.339962" fill="#28D3C7" transform="matrix(1.00279 0 0 1 237.034 10.059)"/><path d="M54.3939 33.0103 52.6601 32.2284C52.6601 32.2284 52.6261 32.2284 52.6261 32.2284 52.5921 32.2284 52.5581 32.2624 52.5581 32.2964L52.5921 34.0982C52.5921 34.1322 52.6261 34.1662 52.6261 34.1662L54.3599 34.9481C54.3599 34.9481 54.3939 34.9481 54.3939 34.9481 54.4279 34.9481 54.4619 34.9141 54.4619 34.8801L54.4279 33.0783C54.4279 33.0443 54.4279 33.0443 54.3939 33.0103Z" stroke="#000000" stroke-width="0.339962" fill="#28D3C7" transform="matrix(1.00279 0 0 1 237.034 10.059)"/><path d="M48.1726 34.4381C48.5466 34.7441 49.2945 34.9821 49.7704 35.1521 49.7704 35.1521 49.7704 35.1521 49.7704 35.1521 49.8044 35.1521 49.8044 35.1521 49.8044 35.1181L49.8044 33.6222C49.8044 33.5882 49.7704 33.5542 49.7704 33.5542L48.2406 32.7383C48.2406 32.7383 48.2066 32.7383 48.2066 32.7383 48.1726 32.7383 48.1386 32.7723 48.1386 32.8063 48.2066 33.3163 48.1046 33.7582 48.1046 34.2682 48.1046 34.3702 48.1046 34.4042 48.1726 34.4381Z" stroke="#000000" stroke-width="0.339962" fill="#28D3C7" transform="matrix(1.00279 0 0 1 237.034 10.059)"/><path d="M56.4677 34.0982 54.8359 33.2823C54.8359 33.2823 54.8359 33.2823 54.8019 33.2823 54.7679 33.2823 54.7679 33.3163 54.7679 33.3163L54.7679 35.1181C54.7679 35.1521 54.7679 35.1521 54.8019 35.1521L56.4677 35.934C56.4677 35.934 56.4677 35.934 56.5017 35.934 56.5357 35.934 56.5357 35.9 56.5357 35.9L56.5357 34.1322C56.5017 34.1322 56.4677 34.0982 56.4677 34.0982Z" stroke="#000000" stroke-width="0.339962" fill="#28D3C7" transform="matrix(1.00279 0 0 1 237.034 10.059)"/><path d="M50.1444 33.7242 50.1444 35.322C50.1444 35.356 50.1444 35.356 50.1784 35.39L52.1162 36.2399C52.1162 36.2399 52.1162 36.2399 52.1502 36.2399 52.1842 36.2399 52.2182 36.206 52.2182 36.172L52.2182 34.7441C52.2182 34.7101 52.2182 34.7101 52.1842 34.6761L50.2464 33.6562C50.2464 33.6562 50.2124 33.6562 50.2124 33.6562 50.1784 33.6902 50.1444 33.6902 50.1444 33.7242Z" stroke="#000000" stroke-width="0.339962" fill="#28D3C7" transform="matrix(1.00279 0 0 1 237.034 10.059)"/><path d="M57.1476 38.7557C57.1476 38.7557 57.1476 38.7557 57.1476 38.7557 57.2156 38.7557 57.2836 37.7018 57.2836 36.4099L57.2836 34.5061C57.2836 34.5061 57.2836 34.5061 57.2836 34.5061 57.2836 34.4721 57.2496 34.4381 57.2156 34.4381L57.0116 34.4381C56.9776 34.4381 56.9436 34.4721 56.9436 34.5061L56.9436 36.4099C56.9436 37.7018 56.9776 38.7217 57.0456 38.7557L57.1476 38.7557Z" stroke="#000000" stroke-width="0.339962" fill="#28D3C7" transform="matrix(1.00279 0 0 1 237.034 10.059)"/><path d="M52.4561 36.3419C53.0681 36.7499 53.714 37.0559 54.3939 37.3278 54.4619 37.3618 54.4619 37.3278 54.4619 37.2598 54.4279 36.8859 54.4279 36.4779 54.3939 36.104 54.3599 35.39 53.272 35.0161 52.7281 34.9141 52.5581 34.8801 52.4901 34.9481 52.4901 35.0841L52.4561 36.07C52.4561 36.104 52.4561 36.138 52.4221 36.172 52.4221 36.172 52.3881 36.206 52.3881 36.206 52.4221 36.3079 52.4221 36.3419 52.4561 36.3419Z" stroke="#000000" stroke-width="0.339962" fill="#28D3C7" transform="matrix(1.00279 0 0 1 237.034 10.059)"/><path d="M54.7679 37.4638 56.2637 38.1437C56.2637 38.1437 56.2977 38.1437 56.2977 38.1437 56.3657 38.1437 56.3997 38.1097 56.3997 38.0417L56.4337 36.7159C56.4337 36.6819 56.3997 36.6479 56.3657 36.6139L54.8699 35.866C54.8699 35.866 54.8359 35.866 54.8359 35.866 54.7679 35.866 54.7339 35.9 54.7339 35.968L54.6999 37.3958C54.6999 37.3958 54.7339 37.4298 54.7679 37.4638Z" stroke="#000000" stroke-width="0.339962" fill="#28D3C7" transform="matrix(1.00279 0 0 1 237.034 10.059)"/><path d="M48.1726 38.4837 49.6004 39.0956C49.6344 39.0956 49.6684 39.0956 49.6684 39.0956 49.7704 39.0956 49.8724 38.9936 49.8724 38.8917L49.8724 37.4298C49.8724 37.2938 49.8044 37.1918 49.6684 37.1238L48.1046 36.3759C48.1046 36.3759 48.1046 36.3759 48.0706 36.3759 48.0366 36.3759 48.0026 36.4099 48.0026 36.4099L48.0026 38.2117C48.0366 38.3477 48.1046 38.4497 48.1726 38.4837Z" stroke="#000000" stroke-width="0.339962" fill="#28D3C7" transform="matrix(1.00279 0 0 1 237.034 10.059)"/><path d="M52.2522 39.6736 52.1842 38.3817C52.1842 38.2797 52.1162 38.1777 52.0142 38.1437L50.3484 37.3958C50.2804 37.3618 50.2464 37.3958 50.2464 37.4638 50.2464 37.9738 50.2804 38.4497 50.3144 38.9596 50.3144 39.0956 50.4164 39.1976 50.5863 39.2996 51.0963 39.5716 51.6062 39.7416 52.0822 39.8435 52.1842 39.8775 52.2522 39.8095 52.2522 39.6736Z" stroke="#000000" stroke-width="0.339962" fill="#28D3C7" transform="matrix(1.00279 0 0 1 237.034 10.059)"/><path d="M54.4279 39.1296C54.4279 39.0956 54.3939 39.0616 54.3599 39.0276L52.6601 38.3817C52.6601 38.3817 52.6261 38.3817 52.6261 38.3817 52.5581 38.3817 52.5241 38.4497 52.5241 38.4837L52.5581 39.9455C52.5581 39.9795 52.5921 40.0135 52.6261 40.0475L54.3599 40.7614C54.3599 40.7614 54.3939 40.7614 54.3939 40.7614 54.4619 40.7614 54.4959 40.6934 54.4959 40.6595L54.4279 39.1296Z" stroke="#000000" stroke-width="0.339962" fill="#28D3C7" transform="matrix(1.00279 0 0 1 237.034 10.059)"/><path d="M48.0366 40.5575C48.0366 40.5915 48.0706 40.6255 48.1046 40.6255L49.9404 41.2714C49.9744 41.2714 50.0084 41.2714 50.0424 41.2374 50.0764 41.2034 50.0764 41.1354 50.0424 41.1014 50.0084 41.0674 50.0084 41.0674 49.9744 41.0334 49.9404 40.9994 49.9404 40.9314 49.9404 40.9314L49.9064 40.0815C49.9064 39.9455 49.8384 39.8435 49.7024 39.7756L48.1046 39.0616C48.1046 39.0616 48.1046 39.0616 48.1046 39.0616 48.1046 39.0616 48.0706 39.0616 48.0706 39.0956L48.0366 40.5575Z" stroke="#000000" stroke-width="0.339962" fill="#28D3C7" transform="matrix(1.00279 0 0 1 237.034 10.059)"/><path d="M56.3317 39.8095 54.8019 39.1976C54.8019 39.1976 54.7679 39.1976 54.7679 39.1976 54.7339 39.1976 54.6999 39.2316 54.6999 39.2656L54.7339 40.6595C54.7339 40.7274 54.7679 40.7954 54.8019 40.8294 55.2778 41.2034 55.8218 41.4414 56.4337 41.5774 56.4337 41.5774 56.4337 41.5774 56.4337 41.5774 56.4677 41.5774 56.5017 41.5434 56.5017 41.5094L56.4677 40.0135C56.5017 39.9115 56.4337 39.8435 56.3317 39.8095Z" stroke="#000000" stroke-width="0.339962" fill="#28D3C7" transform="matrix(1.00279 0 0 1 237.034 10.059)"/><path d="M50.3144 39.9455C50.2464 39.9455 50.1784 40.0135 50.1784 40.0815L50.2464 41.2034C50.2464 41.3394 50.3144 41.4414 50.4504 41.5094 50.9603 41.7813 51.5382 41.9513 52.1162 42.0873L52.1842 40.6595C51.6742 40.3535 51.0623 40.1155 50.3824 39.9455 50.3484 39.9455 50.3144 39.9455 50.3144 39.9455Z" stroke="#000000" stroke-width="0.339962" fill="#28D3C7" transform="matrix(1.00279 0 0 1 237.034 10.059)"/><path d="M57.0456 44.1271C57.0456 44.1611 57.0796 44.1611 57.1136 44.1611L57.1476 44.1611C57.1816 44.1611 57.2156 44.1271 57.2156 44.0591 57.2496 42.8692 57.2836 41.7473 57.3176 40.6255 57.3176 40.4215 57.2836 40.2515 57.1476 40.1495 57.1476 40.1495 57.1136 40.1155 57.0796 40.1155 57.0456 40.1155 57.0116 40.1495 57.0116 40.2175L57.0456 44.1271C57.0456 44.1271 57.0456 44.1271 57.0456 44.1271Z" stroke="#000000" stroke-width="0.339962" fill="#28D3C7" transform="matrix(1.00279 0 0 1 237.034 10.059)"/><path d="M52.5241 41.6113 52.5581 41.1354C52.5581 41.1354 52.5581 41.1354 52.5581 41.1354 52.5581 41.1354 52.5581 41.1354 52.5581 41.1354 52.5581 41.1354 52.5581 41.1354 52.5581 41.1354L52.5581 42.2913C53.0681 42.6312 53.646 42.8692 54.2239 43.0392 54.2919 43.0392 54.3259 43.0732 54.3259 43.0392 54.3939 43.0052 54.4279 42.9372 54.4279 42.8352L54.3599 41.6793C54.3599 41.5434 54.2919 41.4414 54.1559 41.4074L52.6261 40.7614C52.6261 40.7614 52.5921 40.7614 52.5921 40.7614 52.5241 40.7614 52.4901 40.8294 52.4901 40.8974L52.4901 41.3734 52.5241 41.6113Z" stroke="#000000" stroke-width="0.339962" fill="#28D3C7" transform="matrix(1.00279 0 0 1 237.034 10.059)"/><path d="M54.7339 42.9712C54.7339 43.0392 54.7679 43.1072 54.8359 43.1072L56.1957 43.7531C56.2297 43.7531 56.2297 43.7531 56.2637 43.7531 56.3657 43.7531 56.4337 43.6851 56.4337 43.5831L56.4337 42.3593C56.4337 42.2913 56.3997 42.2233 56.3317 42.2233L54.9379 41.6113C54.9039 41.6113 54.9039 41.6113 54.8699 41.6113 54.7679 41.6113 54.6999 41.6793 54.6999 41.7813L54.7339 42.9712Z" stroke="#000000" stroke-width="0.339962" fill="#28D3C7" transform="matrix(1.00279 0 0 1 237.034 10.059)"/><path d="M48.1726 44.467C48.7166 44.773 49.2945 44.841 49.8044 45.011 49.9404 44.569 49.9744 44.0591 49.9064 43.4471 49.9064 43.4131 49.9064 43.3452 49.8724 43.3112 49.8384 43.2772 49.8044 43.2432 49.7364 43.2092 49.2265 43.0052 48.6826 42.8012 48.1726 42.5632 48.1386 42.5292 48.1046 42.5632 48.1046 42.5972L48.1046 44.331C48.1046 44.399 48.1046 44.433 48.1726 44.467Z" stroke="#000000" stroke-width="0.339962" fill="#28D3C7" transform="matrix(1.00279 0 0 1 237.034 10.059)"/><path d="M52.2182 44.0251 50.3824 43.4131C50.3144 43.3791 50.2804 43.4131 50.2464 43.4811 50.2124 43.5491 50.2124 43.6511 50.2464 43.7531L50.3824 45.1469C50.9263 45.3509 51.4702 45.5549 51.9802 45.6909 52.1162 45.7249 52.1842 45.6909 52.2182 45.6569L52.2182 44.0251Z" stroke="#000000" stroke-width="0.339962" fill="#28D3C7" transform="matrix(1.00279 0 0 1 237.034 10.059)"/><path d="M54.5299 46.2348 54.5299 45.045C54.5299 44.841 54.4279 44.705 54.2239 44.637L52.5581 44.1271 52.5581 45.5889 52.5581 45.6569C52.5581 45.7249 52.5921 45.7589 52.6601 45.7929 53.1701 46.0648 53.748 46.2688 54.3259 46.4048 54.3259 46.4048 54.3599 46.4048 54.3599 46.4048 54.4279 46.4388 54.5299 46.3368 54.5299 46.2348Z" stroke="#000000" stroke-width="0.339962" fill="#28D3C7" transform="matrix(1.00279 0 0 1 237.034 10.059)"/><path d="M56.6037 46.9827 56.6037 45.5209C56.6037 45.4869 56.5697 45.4189 56.5357 45.4189L54.8699 44.909C54.8699 44.909 54.8359 44.909 54.8359 44.909 54.7679 44.909 54.7339 44.943 54.7339 45.011L54.7679 46.5068C54.7679 46.5408 54.8019 46.6088 54.8359 46.6088L56.4337 47.0847C56.4337 47.0847 56.4677 47.0847 56.4677 47.0847 56.5357 47.0847 56.6037 47.0507 56.6037 46.9827Z" stroke="#000000" stroke-width="0.339962" fill="#28D3C7" transform="matrix(1.00279 0 0 1 237.034 10.059)"/><path d="M48.1386 46.9487 49.8044 47.3567C49.8044 47.3567 49.8044 47.3567 49.8044 47.3567 49.8384 47.3567 49.8724 47.3227 49.8724 47.2887L49.8384 45.7589C49.8384 45.7249 49.8384 45.7249 49.8044 45.7249L48.1726 45.2829C48.1726 45.2829 48.1726 45.2829 48.1726 45.2829 48.1386 45.2829 48.1046 45.3169 48.1046 45.3509L48.1046 46.9148C48.1046 46.9148 48.1046 46.9487 48.1386 46.9487Z" stroke="#000000" stroke-width="0.339962" fill="#28D3C7" transform="matrix(1.00279 0 0 1 237.034 10.059)"/><path d="M57.2156 50.2124C57.2836 50.2124 57.3516 48.1726 57.3516 45.6909L57.3516 45.6569C57.3516 45.6569 57.3516 45.6569 57.3516 45.6569 57.3516 45.6229 57.3176 45.6229 57.3176 45.6229L57.1136 45.6229C57.0796 45.6229 57.0796 45.6569 57.0796 45.6569L57.0796 45.6909C57.0796 45.6909 57.0796 45.6909 57.0796 45.7249 57.0796 48.2406 57.1136 50.2464 57.1816 50.2464L57.2156 50.2464Z" stroke="#000000" stroke-width="0.339962" fill="#28D3C7" transform="matrix(1.00279 0 0 1 237.034 10.059)"/><path d="M52.2182 47.9686 52.1502 46.6768C52.1502 46.6428 52.1162 46.6088 52.0822 46.5748L50.4164 45.8609C50.4164 45.8609 50.3824 45.8609 50.3824 45.8609 50.3144 45.8609 50.2804 45.8949 50.2804 45.9629L50.2464 47.4587C50.2464 47.4927 50.2804 47.5607 50.3144 47.5607L52.0822 48.0706C52.0822 48.0706 52.1162 48.0706 52.1162 48.0706 52.1842 48.0706 52.2182 48.0366 52.2182 47.9686Z" stroke="#000000" stroke-width="0.339962" fill="#28D3C7" transform="matrix(1.00279 0 0 1 237.034 10.059)"/><path d="M54.3599 47.1867 52.6941 46.6428C52.6941 46.6428 52.6601 46.6428 52.6601 46.6428 52.5921 46.6428 52.5581 46.7108 52.5581 46.7448L52.6261 48.1386C52.6261 48.1726 52.6601 48.2406 52.6941 48.2406L54.3259 48.7166C54.3259 48.7166 54.3599 48.7166 54.3599 48.7166 54.4279 48.7166 54.4619 48.6486 54.4619 48.6146L54.4619 47.2887C54.4279 47.2547 54.3939 47.2207 54.3599 47.1867Z" stroke="#000000" stroke-width="0.339962" fill="#28D3C7" transform="matrix(1.00279 0 0 1 237.034 10.059)"/><path d="M56.5017 49.3625 56.4677 48.0366C56.4677 48.0026 56.4337 47.9346 56.3997 47.9346L54.8699 47.3227C54.8699 47.3227 54.8359 47.3227 54.8359 47.3227 54.7679 47.3227 54.7339 47.3907 54.7339 47.4247L54.7679 48.7505C54.7679 48.7845 54.8019 48.8525 54.8359 48.8525L56.3657 49.4985C56.3657 49.4985 56.3997 49.4985 56.3997 49.4985 56.4337 49.4985 56.5017 49.4305 56.5017 49.3625Z" stroke="#000000" stroke-width="0.339962" fill="#28D3C7" transform="matrix(1.00279 0 0 1 237.034 10.059)"/><path d="M48.1726 50.0084 49.6004 50.3144C49.6344 50.3144 49.6344 50.3144 49.6684 50.3144 49.8384 50.3144 49.9744 50.1784 49.9744 50.0084L49.9744 49.0225C49.9744 48.9545 49.9404 48.9205 49.8724 48.8865L48.3086 48.4446C48.3086 48.4446 48.3086 48.4446 48.3086 48.4446 48.2746 48.4446 48.2406 48.4786 48.2066 48.5126L48.1046 49.9064C48.1046 49.9744 48.1386 50.0084 48.1726 50.0084Z" stroke="#000000" stroke-width="0.339962" fill="#28D3C7" transform="matrix(1.00279 0 0 1 237.034 10.059)"/><path d="M50.3824 50.5184 51.9122 50.8923C52.0482 50.9263 52.1162 50.8583 52.1162 50.7223L52.1162 49.6344C52.1162 49.4985 52.0482 49.3965 51.9122 49.3625L50.3824 49.0225C50.2124 48.9885 50.1444 49.0565 50.1444 49.1925L50.1104 50.1784C50.1784 50.3484 50.2464 50.4844 50.3824 50.5184Z" stroke="#000000" stroke-width="0.339962" fill="#28D3C7" transform="matrix(1.00279 0 0 1 237.034 10.059)"/><path d="M52.6601 51.0283 54.4959 51.4022C54.4959 51.4022 54.4959 51.4022 54.5299 51.4022 54.5979 51.4022 54.6319 51.3343 54.6319 51.3003L54.5979 50.1784C54.5979 50.1444 54.5639 50.0764 54.5299 50.0764L52.6261 49.5325C52.6261 49.5325 52.5921 49.5325 52.5921 49.5325 52.5241 49.5325 52.4901 49.6004 52.4901 49.6344L52.5581 50.9263C52.5921 50.9603 52.6261 51.0283 52.6601 51.0283Z" stroke="#000000" stroke-width="0.339962" fill="#28D3C7" transform="matrix(1.00279 0 0 1 237.034 10.059)"/><path d="M55.0058 50.1784C55.0058 50.1784 54.9719 50.1784 55.0058 50.1784 54.9039 50.1784 54.8359 50.2464 54.8359 50.3144L54.8699 51.4362C54.8699 51.5042 54.9039 51.5382 54.9719 51.5722L56.1617 51.9462C56.1617 51.9462 56.1957 51.9462 56.1957 51.9462 56.2637 51.9462 56.3317 51.8782 56.3317 51.8102L56.3997 50.5184C56.3997 50.4504 56.3657 50.3824 56.2977 50.3824L55.0058 50.1784Z" stroke="#000000" stroke-width="0.339962" fill="#28D3C7" transform="matrix(1.00279 0 0 1 237.034 10.059)"/><path d="M73.5678 67.8224C71.12 67.4825 68.5363 67.2445 66.0546 66.9045 64.7628 66.7345 62.995 66.6325 62.213 66.5646 61.2611 66.4626 60.2753 66.3946 59.3234 66.3266 53.714 65.9866 48.1046 65.8846 42.4952 65.9866 41.1694 66.0206 38.7217 66.0206 36.8519 66.1226 30.9025 66.4286 24.1033 67.0065 17.746 67.7884 17.542 67.8224 17.542 67.8564 17.746 67.8904 17.746 67.8904 17.848 67.8904 17.95 67.8904 19.0379 67.7884 20.2617 67.7884 21.2816 67.6864 25.9391 67.2785 30.5626 66.9725 35.2201 66.7685 38.2797 66.5985 40.7274 66.6325 43.4811 66.4966 43.7871 66.4966 44.2631 66.4966 44.909 66.4966 45.5549 66.4966 46.2348 66.4626 46.8128 66.4626 47.9006 66.4966 48.9885 66.4966 50.0764 66.4966 51.1303 66.4966 52.7961 66.5985 54.1219 66.5985 55.4478 66.5985 56.7737 66.7345 58.0995 66.8025 58.9494 66.8365 59.9353 66.9045 61.0232 66.9725 62.315 67.0745 63.6749 67.0405 64.9667 67.1765L75.1656 68.0264C75.1656 68.0264 75.1996 68.0264 75.1996 68.0264 75.1996 68.0264 75.2336 67.9924 75.1996 67.9584 75.1996 67.9584 75.1656 67.9244 75.1656 67.9244 74.6557 67.9584 74.1117 67.9244 73.5678 67.8224Z" stroke="#000000" stroke-width="0.339962" fill="#28D3C7" transform="matrix(1.00279 0 0 1 237.034 10.059)"/><path d="M92.6736 70.8481 85.5344 70.1682C82.9167 69.8962 80.265 69.6242 77.6133 69.3862 77.0694 69.3522 76.3215 69.3522 75.6755 69.2503 74.8256 69.1483 74.3497 69.0803 74.2477 69.0463 71.188 68.7743 68.1284 68.5023 65.0347 68.2644 60.4112 68.0264 55.6518 67.8904 48.0366 67.8224 44.875 67.8224 40.7274 67.8224 35.628 67.8904 31.3785 68.0264 27.163 68.1624 22.9474 68.5363 22.4715 68.5703 21.8936 68.5703 21.5196 68.6043 18.12 68.9783 14.7204 69.2842 11.3207 69.5902 9.7909 69.7262 8.26108 69.8962 6.73125 70.1002 4.55549 70.3721 2.37973 70.4401 0.203977 70.6441 0.135985 70.6441 0.0679924 70.6441 0.0679924 70.6781-0.0339962 70.7121-0.0339962 70.7461 0.101989 70.7461L2.10776 70.7461C6.66325 70.5081 11.1508 70.3381 15.6722 70.1682 21.6216 69.9642 27.4689 69.6242 34.7781 69.4882 44.2631 69.3522 53.714 69.3862 63.1989 69.6582 68.5703 69.7942 73.9757 70.1002 79.3471 70.3041 82.7128 70.4401 86.0444 70.6101 89.41 70.7121L92.7076 70.8141C92.7076 70.8821 92.7076 70.8821 92.6736 70.8481 92.7076 70.8481 92.7076 70.8481 92.6736 70.8481 92.7076 70.8481 92.7076 70.8481 92.6736 70.8481Z" stroke="#000000" stroke-width="0.339962" fill="#28D3C7" transform="matrix(1.00279 0 0 1 237.034 10.059)"/></g></g></g><path d="M0 0 1.2 82.8" stroke="#4472C4" stroke-width="0.666667" stroke-miterlimit="8" fill="none" fill-rule="evenodd" transform="matrix(-1 0 0 1 235.7 0.500053)"/><text font-family="Brush Script MT,Brush Script MT_MSFontService,sans-serif" font-style="italic" font-weight="400" font-size="32" transform="translate(324.91 59)">mubE</text><text font-family="Brush Script MT,Brush Script MT_MSFontService,sans-serif" font-style="italic" font-weight="400" font-size="32" transform="translate(384.91 59)">l</text></g></svg>